<?xml version="1.0" encoding="utf-8"?>
<!-- Generator: Adobe Illustrator 16.0.0, SVG Export Plug-In . SVG Version: 6.00 Build 0)  -->
<!DOCTYPE svg PUBLIC "-//W3C//DTD SVG 1.1//EN" "http://www.w3.org/Graphics/SVG/1.1/DTD/svg11.dtd">
<svg version="1.1" xmlns="http://www.w3.org/2000/svg" xmlns:xlink="http://www.w3.org/1999/xlink" x="0px" y="0px" width="400px"
	 height="400px" viewBox="-424.488 -631.953 400 400" enable-background="new -424.488 -631.953 400 400" xml:space="preserve">
<g id="Layer_4">
</g>
<g id="Capa_2">
	<g>
		<path fill="#BFD2EC" d="M-186.278-403.86c0,0-31.521,6.594-34.509,4.141c-2.993-2.455,11.73,50.156,6.67,54.068
			c-5.061,3.91-4.371,74.775,0.921,72.014c-0.227,10.812-2.988,40.492,5.694,39.574c11.564-1.842,14.096-22.547,9.492-41.414
			c-4.598-18.865,14.267-25.541,2.072-53.84C-193.868-361.249-186.278-403.86-186.278-403.86z"/>
		<path fill="#BFD2EC" d="M-262.633-403.86c0,0,31.521,6.594,34.514,4.141c2.989-2.455-11.73,50.156-6.67,54.068
			c5.061,3.91,4.371,74.775-0.921,72.014c0.227,10.812,2.988,40.492-5.699,39.574c-11.56-1.842-14.09-22.547-9.492-41.414
			c4.603-18.865-14.262-25.541-2.068-53.84C-255.042-361.249-262.633-403.86-262.633-403.86z"/>
		<path fill="#BFD2EC" d="M-173.431-550.739c-13.031-8.994-52.806-7.342-52.806-7.342s-36.077-1.652-49.108,7.342
			c-13.031,8.992-10.644,13.031,0,41.484c10.265,27.426,14.382,44.955,17.625,60.979l-0.514,1.801c0,0,0.49,0.059,1.365,0.16
			c7.133,2.504,19.965,2.875,32.474,2.463c12.518,0.416,25.363,0.041,32.501-2.467c0.87-0.1,1.355-0.16,1.355-0.16l-0.541-1.684
			c3.248-16.055,7.364-33.602,17.648-61.092C-162.782-537.708-160.4-541.747-173.431-550.739z"/>
		<g>
			<g>
				<g>
					<path fill="#7AA7DC" d="M-217.359-441.635c-19.888,0-40.695-2.787-41.976-2.963c-1.3-0.176-1.503-1.531-1.328-2.826
						s0.657-2.047,1.966-1.863c0.458,0.059,46.148,6.18,66.179,0.461c1.254-0.355,2.567,0.367,2.928,1.629
						c0.361,1.256-0.37,2.568-1.628,2.926C-198.111-442.303-207.626-441.635-217.359-441.635z"/>
				</g>
				<g>
					<g>
						<path fill="#7AA7DC" d="M-224.488-569.325c14.146,0,25.65-14.041,25.65-31.314c0-17.27-11.504-31.312-25.65-31.312
							c-14.142,0-25.646,14.043-25.646,31.312C-250.134-583.366-238.629-569.325-224.488-569.325z M-224.488-626.036
							c10.875,0,19.734,11.395,19.734,25.396c0,14.012-8.859,25.406-19.734,25.406c-10.876,0-19.729-11.404-19.729-25.406
							C-244.217-614.647-235.364-626.036-224.488-626.036z"/>
					</g>
					<g>
						<path fill="#7AA7DC" d="M-257.618-442.54c0.069-0.264,0.111-0.418,0.111-0.418c1.994-5.549-8.697-42.75-10.852-51.146
							c0,0-3.465-12.912-3.719-13.998c0,0-7.781-13.781-7.887-13.543c-5.135-5.801-14.3-7.25-16.183-7.494
							c-9.803-3.152-17.971-12.27-28.43-13.396c-8.539-0.908-21.524-4.461-31.007-7.061l-4.274-1.18
							c-3.014-0.805-8-1.947-11.611-2.725c-5.708-1.246-13.355-2.688-21.904-2.688c-2.146,0-4.261,0.094-6.319,0.27
							c-1.799,0.154-3.599,0.234-5.375,0.234c-5.019,0-9.016-0.633-11.519-1.166c5.917-2.068,15.307-3.119,27.908-3.119
							c23.747,0,55.009,3.646,79.586,6.82c11.099,1.428,20.722,3.172,28.595,5.188c1.934,0.492,4.672,0.574,6.227,0.137l1.906-0.641
							c3.923-1.057,8.082-2.561,11.111-3.652c2.369-0.842,4.386-1.557,5.861-1.977c1.832-0.518,4.145-0.93,7.11-1.271
							c3.081-0.338,20.627-0.967,23.801-0.967c3.173,0,20.719,0.629,23.8,0.967c2.966,0.342,5.278,0.754,7.11,1.271
							c1.476,0.42,3.492,1.135,5.861,1.977c3.029,1.092,7.184,2.596,11.106,3.652l1.91,0.641c1.555,0.438,4.289,0.355,6.227-0.137
							c7.869-2.016,17.491-3.76,28.593-5.188c24.573-3.174,55.835-6.82,79.581-6.82c12.601,0,21.991,1.051,27.908,3.119
							c-2.503,0.533-6.499,1.166-11.519,1.166c-1.776,0-3.576-0.08-5.375-0.234c-2.059-0.176-4.173-0.27-6.319-0.27
							c-8.549,0-16.195,1.441-21.903,2.688c-3.608,0.777-8.596,1.92-11.611,2.725l-4.27,1.18c-9.483,2.6-22.469,6.152-31.008,7.061
							c-10.459,1.127-18.624,10.244-28.431,13.396c-1.878,0.244-11.042,1.693-16.177,7.494c-0.106-0.238-7.893,13.543-7.893,13.543
							c-0.254,1.086-3.719,13.998-3.719,13.998c-2.096,8.158-14.678,43.438-13.535,50.559c0.24-0.084,1.517-0.604,1.762-0.67
							c1.472-0.406,2.175,0.736,3.498,0.857c-0.231-0.877-0.463-1.762-0.699-2.619c-0.305-9.422,11.75-40.221,13.489-46.998
							l3.955-14.197l4.543-7.443c1.638-7.367,12.31-9.496,15.543-9.973l0.255-0.057c9.866-3.139,18.11-12.238,27.949-13.295
							c8.84-0.943,21.969-4.529,31.559-7.15l4.436-1.221c2.91-0.773,7.805-1.908,11.375-2.68c5.482-1.201,12.81-2.576,20.993-2.576
							c1.989,0,3.955,0.09,5.856,0.25c1.934,0.16,3.886,0.258,5.806,0.258c5.468,0,9.849-0.707,12.549-1.303
							c3.066-0.658,4.279-2.594,4.381-4.184c0.111-1.982-1.277-3.701-3.701-4.574c-6.596-2.373-16.204-3.521-29.406-3.521
							c-18.448,0-44.017,2.193-80.446,6.902c-11.292,1.457-21.099,3.24-29.152,5.289c-0.727,0.184-1.666,0.289-2.567,0.289
							c-0.61,0-1.027-0.051-1.161-0.088l-1.906-0.65c-3.7-0.99-7.425-2.332-10.903-3.578l-0.842-0.299
							c-2.081-0.734-3.876-1.375-5.324-1.785c-2.096-0.586-4.663-1.051-7.851-1.416c-3.261-0.363-20.997-0.992-24.327-0.992
							c-3.326,0-21.066,0.629-24.328,0.992c-3.187,0.365-5.754,0.83-7.85,1.416c-1.448,0.41-3.243,1.051-5.324,1.785l-0.842,0.299
							c-3.479,1.246-7.207,2.588-10.903,3.578l-1.906,0.65c-0.139,0.037-0.55,0.088-1.161,0.088c-0.907,0-1.841-0.105-2.567-0.289
							c-8.054-2.049-17.862-3.832-29.155-5.289c-36.434-4.709-62.001-6.902-80.452-6.902c-13.203,0-22.811,1.148-29.407,3.521
							c-2.424,0.873-3.812,2.592-3.701,4.574c0.102,1.59,1.314,3.525,4.381,4.184c2.702,0.596,7.083,1.303,12.55,1.303
							c1.919,0,3.872-0.098,5.805-0.258c1.901-0.16,3.868-0.25,5.856-0.25c8.184,0,15.511,1.375,20.993,2.576
							c3.573,0.771,8.468,1.906,11.375,2.68l4.441,1.221c9.589,2.621,22.718,6.207,31.558,7.15
							c9.839,1.057,18.082,10.156,27.949,13.295l0.259,0.057c3.234,0.477,13.907,2.605,15.544,9.973l4.538,7.443l3.955,14.197
							c1.744,6.777,12.259,38.941,11.954,48.361"/>
					</g>
				</g>
			</g>
			<g>
				<path fill="#7AA7DC" d="M-238.99-397.411c-12.083,0-25.073-5.195-25.809-5.492l1.735-4.398
					c0.227,0.092,22.538,9.002,33.913,3.24l2.091,4.238C-230.529-398.065-234.701-397.411-238.99-397.411z"/>
			</g>
			<g>
				<path fill="#7AA7DC" d="M-210.767-397.411c-4.349,0-8.577-0.654-12.093-2.412l2.119-4.238
					c11.546,5.785,34.144-3.148,34.375-3.24l1.758,4.398C-185.353-402.606-198.523-397.411-210.767-397.411z"/>
			</g>
			<g>
				<g>
					<g>
						<path fill="#7AA7DC" d="M-206.127-231.954c-0.144,0-0.287-0.004-0.431-0.014c-3.622-0.209-6.702-3.092-8.456-7.912
							c-1.854-5.102-1.393-13.207-0.943-21.049c0.342-6.023,0.698-12.254-0.264-15.131c-2.197-6.598-7.018-33.502-2.239-57.271
							c3.918-19.514,1.592-29.797-0.277-38.062c-0.818-3.607-1.587-7.016-1.771-10.695c-0.921-18.387-5.403-24.684-5.449-24.746
							c-0.769-1.045-0.561-2.523,0.477-3.305c1.036-0.781,2.497-0.594,3.288,0.432c0.223,0.285,5.403,7.217,6.412,27.385
							c0.166,3.27,0.86,6.334,1.665,9.885c1.966,8.703,4.423,19.535,0.301,40.041c-4.594,22.84-0.005,48.551,2.091,54.84
							c1.244,3.738,0.897,9.838,0.495,16.9c-0.397,7.02-0.852,14.977,0.666,19.158c1.078,2.957,2.637,4.709,4.279,4.803
							c1.785,0.072,3.979-1.83,5.593-5.053c4.08-8.16,2.733-14.453,1.305-21.117c-0.981-4.588-1.994-9.328-0.944-14.422
							c2.984-14.402,7.06-34.127,1.813-53.373c-0.93-3.402,0.218-8.951,2.123-18.143c2.207-10.684,5.547-26.832,7.105-48.182
							c2.207-30.252-3.765-47.82-3.825-47.992c-0.426-1.234,0.222-2.586,1.457-3.016c1.23-0.428,2.586,0.213,3.017,1.447
							c0.259,0.744,6.36,18.576,4.075,49.906c-1.582,21.66-4.959,37.988-7.193,48.795c-1.577,7.613-2.817,13.631-2.188,15.939
							c5.547,20.338,1.333,40.705-1.744,55.574c-0.851,4.117,0.019,8.178,0.939,12.473c1.457,6.834,3.118,14.582-1.702,24.229
							C-198.906-234.727-202.412-231.954-206.127-231.954z"/>
					</g>
				</g>
				<g>
					<g>
						<path fill="#7AA7DC" d="M-242.843-231.954c-3.715,0-7.217-2.773-9.673-7.676c-4.82-9.646-3.164-17.395-1.698-24.229
							c0.916-4.295,1.786-8.355,0.934-12.473c-3.076-14.869-7.29-35.236-1.744-55.574c0.629-2.309-0.615-8.326-2.188-15.939
							c-2.234-10.807-5.616-27.135-7.193-48.795c-2.285-31.33,3.812-49.162,4.075-49.906c0.43-1.23,1.776-1.879,3.016-1.447
							c1.23,0.43,1.883,1.781,1.453,3.016c-0.06,0.172-6.027,17.74-3.821,47.994c1.559,21.348,4.898,37.496,7.11,48.18
							c1.901,9.191,3.049,14.74,2.119,18.143c-5.246,19.246-1.166,38.971,1.812,53.373c1.055,5.094,0.037,9.834-0.943,14.422
							c-1.425,6.664-2.775,12.957,1.305,21.117c1.614,3.223,3.756,5.119,5.598,5.053c1.637-0.094,3.196-1.846,4.27-4.803
							c1.521-4.182,1.068-12.139,0.666-19.158c-0.402-7.062-0.75-13.162,0.499-16.9c2.096-6.289,6.681-32,2.092-54.84
							c-4.122-20.506-1.67-31.338,0.3-40.041c0.806-3.551,1.499-6.615,1.661-9.885c1.009-20.168,6.194-27.1,6.411-27.385
							c0.801-1.033,2.29-1.221,3.322-0.426c1.036,0.799,1.226,2.287,0.43,3.322c-0.027,0.039-4.51,6.336-5.431,24.723
							c-0.186,3.68-0.958,7.088-1.771,10.695c-1.874,8.266-4.2,18.549-0.278,38.062c4.774,23.77-0.046,50.674-2.243,57.271
							c-0.958,2.877-0.606,9.107-0.259,15.131c0.443,7.842,0.906,15.947-0.944,21.049c-1.753,4.82-4.834,7.703-8.456,7.912
							C-242.557-231.958-242.699-231.954-242.843-231.954z"/>
					</g>
				</g>
			</g>
			<g>
				<path fill="#7AA7DC" stroke="#7AA7DC" stroke-width="2" stroke-linecap="round" stroke-miterlimit="10" d="M-206.349-533.194
					c0,0-8.17,17.014-4.085,19.736"/>
				<path fill="#7AA7DC" stroke="#7AA7DC" stroke-width="2" stroke-linecap="round" stroke-miterlimit="10" d="M-242.621-533.194
					c0,0,8.17,17.014,4.085,19.736"/>
			</g>
		</g>
	</g>
	<g id="Capa_1">
	</g>
</g>
<g id="Capa_3">
</g>
</svg>
