<?xml version="1.0" encoding="utf-8"?>
<!-- Generator: Adobe Illustrator 16.0.0, SVG Export Plug-In . SVG Version: 6.00 Build 0)  -->
<!DOCTYPE svg PUBLIC "-//W3C//DTD SVG 1.1//EN" "http://www.w3.org/Graphics/SVG/1.1/DTD/svg11.dtd">
<svg version="1.1" xmlns="http://www.w3.org/2000/svg" xmlns:xlink="http://www.w3.org/1999/xlink" x="0px" y="0px" width="400px"
	 height="400px" viewBox="101.83 -1133.187 400 400" enable-background="new 101.83 -1133.187 400 400" xml:space="preserve">
<g id="Layer_4">
</g>
<g id="Capa_2">
	<g>
		<path fill="#FFABDF" d="M274.067-972.817c0,0,0.046-24.844,0.38-24.743C274.778-997.461,300.864-983.261,274.067-972.817z"/>
		<path fill="#FFABDF" d="M327.237-972.817c0,0-0.047-24.844-0.38-24.743C326.525-997.461,300.44-983.261,327.237-972.817z"/>
		<path fill="#FFABDF" d="M273.765-970.444h53.882c0,0,18.671,32.092,11.746,33.782c-4.316,1.049-26.547,4.047-39.208,16.101
			c-9.354-10.641-23.078-12.233-35.975-15.769C257.188-951.831,273.765-970.444,273.765-970.444z"/>
		<path fill="#FFABDF" d="M344.797-1049.981c0,0-12.185,13.079-14.413,9.918c1.64-9.184-22.735-18.979-22.735-18.979
			S332.44-1057.593,344.797-1049.981z"/>
		<path fill="#FFABDF" d="M257.826-1049.981c0,0,12.185,13.079,14.413,9.918c-1.641-9.184,22.735-18.979,22.735-18.979
			S270.181-1057.593,257.826-1049.981z"/>
		<path fill="#FFABDF" d="M282.479-1035.709c-11.881,1.394-12.821,12.202-12.821,12.202s-6.114,16.585,19.658,12.706
			c5.904-0.888,10.118-0.551,13.028-0.731c2.91,0.18,7.117-0.122,13.027,0.731c22.004,3.174,15.067-16.812,15.067-16.812
			s-8.112-13.755-30.097-2.587C295.146-1027.561,286.219-1035.95,282.479-1035.709"/>
		<path fill="#FFABDF" d="M278.346-1101.022c0,15.976,10.512,28.927,23.479,28.927c12.975,0,23.486-12.951,23.486-28.927
			s-10.512-28.927-23.486-28.927C288.858-1129.949,278.346-1116.998,278.346-1101.022z"/>
		<g>
			<path fill="#FF36A9" d="M301.811-1070.452c14.168,0,25.692-14.067,25.692-31.367c0-17.3-11.524-31.368-25.692-31.368
				c-14.167,0-25.691,14.068-25.691,31.368C276.12-1084.519,287.644-1070.452,301.811-1070.452z M301.811-1127.26
				c10.895,0,19.766,11.414,19.766,25.441c0,14.033-8.871,25.448-19.766,25.448c-10.896,0-19.765-11.422-19.765-25.448
				C282.047-1115.852,290.916-1127.26,301.811-1127.26z M483.795-1062.526c-6.608-2.376-16.232-3.524-29.457-3.524
				c-18.479,0-44.09,2.194-80.585,6.912c-11.312,1.458-21.132,3.246-29.197,5.299c-0.732,0.182-1.668,0.291-2.574,0.291
				c-0.614,0-1.026-0.053-1.16-0.088l-1.912-0.654c-3.704-0.993-7.439-2.335-10.919-3.584l-0.849-0.299
				c-2.082-0.734-3.878-1.376-5.328-1.788c-2.1-0.587-4.671-1.053-7.866-1.418c-3.265-0.365-8.584-0.56-11.92-0.56
				c-3.322,0-8.628,0.195-11.928,0.56c-3.179,0.365-5.75,0.824-7.845,1.418c-1.45,0.404-3.246,1.046-5.331,1.788l-0.979,0.352
				c-3.313,1.188-7.081,2.531-10.807,3.538l-2.193,0.607c-0.712,0.203-2.714,0.128-3.849-0.162
				c-8.072-2.06-17.896-3.84-29.206-5.299c-36.493-4.718-62.104-6.912-80.59-6.912c-13.225,0-22.858,1.155-29.466,3.524
				c-2.424,0.877-3.81,2.598-3.673,4.61c0.109,1.586,1.316,3.524,4.386,4.186c2.697,0.594,7.076,1.295,12.604,1.295
				c1.912,0,3.855-0.088,5.786-0.249c1.901-0.162,3.88-0.249,5.873-0.249c8.188,0,15.532,1.376,21.019,2.578
				c1.77,0.392,7.831,1.735,11.38,2.679l4.504,1.243c9.593,2.618,22.729,6.209,31.565,7.147c9.766,1.053,30.435,5.833,40.647,9.045
				c1.14,0.19,11.153,2.073,12.907,9.93l1.41,6.865l3.722,14.499c1.928,7.507,2.11,17.462,0.417,22.196l-1.02,2.84
				c-0.871,2.113-1.904,4.954-3.165,8.653l-2.769,7.347c-1.742,4.595-4.266,13.478-5.994,21.087l-0.554,1.965l-0.176,1.119h0.062
				l-0.366,1.816c-1.682,8.179-2.187,21.589-1.135,29.902l0.183,1.469c1.048,8.169,3.982,21.241,6.541,29.142l4.754,14.583
				l2.09,8.674c1.116,4.611,2.021,11.988,2.021,16.455l0.021,8.118l-0.751,8.494c-0.424,5.023,0.92,14.495,3.065,21.565
				c1.136,3.753,2.28,8.262,3.077,12.062c0.655,3.179,0.945,8.225,0.621,11.19c-0.065,0.565-0.135,1.145-0.214,1.715
				c-0.122,0.871-0.306,1.909-0.495,3.012c-0.524,3.044-1.126,6.487-0.992,9.11c0.25,4.991,1.399,10.899,3.077,15.82
				c2.215,6.464,5.167,7.428,6.719,7.428h0.12c1.789-0.042,4.254-1.177,5.825-6.381c2.183-7.219,2.836-16.413,1.487-20.935
				c-1.177-3.901-2.122-10.064-2.122-13.744c0-3.763,1.297-12.646,2.905-19.809c1.673-7.53,2.522-18.146,1.888-23.688l-1.142-9.792
				l-1.483-7.391c-0.775-3.92-1.086-11.937-0.688-17.858c0.282-4.221,1.045-10.708,1.935-16.524c0.164-1.08,0.394-2.396,0.637-3.795
				l0.113-0.667c0.406-2.321,0.913-5.208,1.178-7.261c0.797-6.182,1.315-13.429,1.315-18.465c0-4.889,0.985-8.54,1.639-10.064
				c0.648,1.538,1.601,5.199,1.601,10.064c0,4.995,0.519,12.242,1.33,18.465c0.25,1.974,0.709,4.647,1.167,7.238l0.236,1.427
				c0.188,1.112,0.371,2.159,0.506,3.058c0.898,5.792,1.663,12.275,1.937,16.515c0.405,5.959,0.088,13.976-0.699,17.863
				l-1.514,7.571l-1.107,9.606c-0.642,5.523,0.211,16.153,1.884,23.688c1.599,7.173,2.91,16.07,2.91,19.809
				c0,3.684-0.952,9.847-2.122,13.744c-1.349,4.522-0.7,13.711,1.48,20.936c1.573,5.204,4.05,6.343,5.919,6.385
				c1.924,0,4.652-1.283,6.752-7.423c1.687-4.912,2.833-10.82,3.076-15.824c0.13-2.618-0.473-6.061-0.998-9.105
				c-0.192-1.094-0.364-2.136-0.486-3.002c-0.086-0.63-0.169-1.274-0.229-1.914c-0.317-2.859-0.028-7.794,0.64-11.005
				c0.797-3.804,1.946-8.313,3.081-12.066c2.104-6.946,3.479-16.621,3.056-21.565l-0.734-8.29v-8.317
				c0-4.435,0.911-11.821,2.032-16.459l2.036-8.503l4.801-14.754c2.551-7.877,5.481-20.954,6.543-29.155l0.174-1.474
				c1.065-8.262,0.567-21.667-1.119-29.888l-0.319-1.534c-0.251-1.219-0.533-2.519-0.851-3.881
				c-0.028-0.134-0.067-0.292-0.142-0.635c-1.742-7.451-4.092-15.653-5.718-19.947l-6.965-18.838
				c-1.695-4.727-1.506-14.682,0.424-22.195l3.742-14.607l1.381-6.73c1.641-7.378,12.335-9.511,15.574-9.99l0.255-0.055
				c9.884-3.144,30.404-7.897,40.258-8.957c8.854-0.945,22.005-4.534,31.611-7.161l4.448-1.222c2.912-0.776,7.817-1.91,11.395-2.687
				c5.49-1.201,12.83-2.579,21.027-2.579c1.993,0,3.962,0.089,5.866,0.25c1.938,0.163,3.893,0.257,5.815,0.257
				c5.478,0,9.865-0.709,12.571-1.303c3.072-0.662,4.286-2.6,4.389-4.191C487.613-1059.927,486.222-1061.649,483.795-1062.526z
				 M294.298-899.51c0,4.819-0.5,11.839-1.283,17.873c-0.236,1.807-0.653,4.23-1.052,6.566l-0.088,0.496
				c-0.29,1.668-0.565,3.262-0.765,4.555c-0.903,5.815-1.678,12.451-1.983,16.908c-0.417,6.274-0.074,14.833,0.776,19.086
				l1.452,7.201l1.107,9.602c0.587,5.097-0.231,15.027-1.816,22.135c-1.654,7.46-3.002,16.797-3.002,20.824
				c0,4.05,1.03,10.82,2.308,15.083c1.079,3.596,0.398,12.117-1.465,18.225c-0.644,2.076-1.241,2.808-1.501,3.035
				c-0.343-0.241-1.295-1.163-2.34-4.212c-1.534-4.495-2.621-10.064-2.836-14.536c-0.096-2.145,0.5-5.57,0.945-8.077
				c0.194-1.163,0.392-2.252,0.507-3.165c0.086-0.593,0.155-1.191,0.221-1.77l0.037-0.264c0.347-3.267,0.032-8.86-0.709-12.46
				c-0.786-3.79-1.972-8.447-3.188-12.474c-1.965-6.501-3.248-15.394-2.868-19.828l0.741-8.688v-8.317
				c0-4.75-0.964-12.618-2.146-17.539l-2.146-8.846l-4.786-14.777c-2.479-7.599-5.329-20.296-6.353-28.293l-0.19-1.46
				c-0.999-7.905-0.519-20.634,1.075-28.372l0.324-1.529c0.088-0.454,0.188-0.936,0.297-1.413c0.579-0.014,1.146-0.019,1.707-0.019
				c24.64,0,30.977,14.045,32.563,20.347C294.961-911.052,294.298-902.48,294.298-899.51z M337.85-932.507l0.311,1.529
				c1.592,7.762,2.071,20.486,1.062,28.373l-0.184,1.469c-1.021,7.984-3.871,20.676-6.346,28.284l-4.84,14.939l-2.093,8.679
				c-1.195,4.921-2.154,12.79-2.154,17.543l0.014,8.498l0.728,8.508c0.401,4.458-0.895,13.35-2.865,19.818
				c-1.182,3.911-2.371,8.577-3.172,12.474c-0.656,3.146-1.117,8.799-0.712,12.446c0.069,0.667,0.15,1.357,0.243,2.039
				c0.13,0.932,0.317,2.021,0.547,3.309c0.469,2.757,1.001,5.885,0.904,7.961c-0.209,4.485-1.293,10.055-2.827,14.526
				c-1.04,3.04-1.997,3.962-2.342,4.217c-0.253-0.231-0.864-0.964-1.49-3.026c-1.858-6.158-2.549-14.675-1.474-18.238
				c1.27-4.295,2.308-11.056,2.308-15.083c0-4.008-1.349-13.35-3.01-20.824c-1.58-7.113-2.397-17.034-1.816-22.131l1.094-9.42
				l1.467-7.386c0.848-4.235,1.2-12.798,0.783-19.096c-0.297-4.397-1.075-11.033-1.988-16.899c-0.167-1.089-0.396-2.4-0.625-3.786
				l-0.144-0.797c-0.432-2.512-0.891-5.134-1.131-7.029c-0.778-6.098-1.293-13.114-1.293-17.882c0-3.091-0.692-11.932-3.717-14.272
				c2.16-17.237,27.524-20.198,34.332-20.685C337.568-933.781,337.716-933.132,337.85-932.507z M336.338-939.052
				c-8.153,0.616-29.668,3.647-36.152,18.491c-3.677-7.498-12.801-18.065-34.92-18.065l-0.473,0.005
				c1.803-6.167,4.956-16.692,7.777-25.049l2.463-6.756c4.483,1.005,16.874,3.503,29.64,3.503c8.432,0,15.655-1.066,21.487-3.186
				C327.74-965.547,334.042-947.267,336.338-939.052z M324.357-975.192l0.25,0.702c-5.348,1.944-12.043,2.929-19.935,2.929
				c-11.927,0-23.585-2.287-28.053-3.274l0.128-0.357c2.018-5.577,1.888-16.518-0.275-24.909l-2.127-8.309
				c1.133,0.303,2.349,0.377,3.503,0.188c4.935-0.756,12.683-1.66,21.565-1.66c8.473,0,16.378,0.81,23.485,2.409
				c1.134,0.256,2.417,0.29,3.631,0.02l-1.884,7.351C322.487-991.69,322.36-980.747,324.357-975.192z M329.394-1020.088
				l-1.244,5.583c-0.418,1.788-2.315,2.867-4.233,2.503c-7.419-1.674-15.66-2.524-24.503-2.524c-9.3,0-17.252,0.932-22.274,1.708
				c-2.106,0.316-4.05-1.019-4.467-2.922l-1.015-4.637c-0.513-2.309,0.681-5.609,2.553-7.062l5.681-4.393
				c1.703-1.318,5.556-1.682,7.475-0.689l6.798,3.482c3.285,1.681,9.26,1.87,12.668,0.397l9.525-4.143
				c0.6-0.263,1.364-0.412,2.208-0.412c1.862,0,3.813,0.696,4.86,1.721l3.684,3.631
				C328.866-1026.122,329.925-1022.497,329.394-1020.088z M470.464-1057.079c-1.78,0-3.582-0.081-5.385-0.235
				c-2.062-0.176-4.18-0.27-6.33-0.27c-8.562,0-16.223,1.443-21.94,2.692c-3.619,0.776-8.614,1.923-11.631,2.727l-4.276,1.182
				c-9.502,2.605-22.509,6.163-31.062,7.075c-10.475,1.127-30.921,5.9-40.742,9.058c-1.886,0.243-11.063,1.696-16.209,7.507
				c-0.66-1.512-1.531-2.828-2.522-3.808l-3.678-3.631c-1.96-1.93-4.962-3.084-8.039-3.084c-1.494,0-2.934,0.283-4.161,0.824
				l-9.511,4.145c-2.147,0.924-6.629,0.775-8.709-0.284l-6.796-3.478c-3.478-1.789-9.334-1.233-12.42,1.155l-5.684,4.395
				c-1.168,0.896-2.188,2.166-2.956,3.651c-4.562-5.685-12.291-7.122-13.52-7.303c-10.176-3.234-30.749-8.033-41.117-9.154
				c-8.533-0.912-21.54-4.469-31.044-7.074l-4.313-1.175c-3.065-0.817-8.033-1.963-11.61-2.727
				c-5.725-1.256-13.384-2.692-21.957-2.692c-2.136,0-4.268,0.094-6.32,0.27c-1.795,0.154-3.604,0.235-5.387,0.235
				c-5.029,0-9.038-0.634-11.542-1.167c5.934-2.08,15.335-3.125,27.96-3.125c23.78,0,55.102,3.651,79.726,6.83
				c11.118,1.438,20.759,3.187,28.641,5.197c1.983,0.5,4.703,0.567,6.251,0.136l2.181-0.595c3.813-1.039,7.506-2.348,11.267-3.697
				l0.275-0.109c2.241-0.789,4.173-1.478,5.609-1.876c1.849-0.526,4.105-0.938,7.102-1.275c3.1-0.338,8.236-0.533,11.408-0.533
				c3.179,0,8.315,0.194,11.401,0.533c2.97,0.344,5.287,0.756,7.122,1.275c1.478,0.419,3.496,1.135,5.87,1.978
				c3.033,1.095,7.196,2.6,11.126,3.66l1.909,0.641c1.562,0.439,4.3,0.358,6.237-0.136c7.887-2.017,17.524-3.766,28.644-5.197
				c24.616-3.179,55.931-6.83,79.716-6.83c12.622,0,22.029,1.053,27.955,3.125C479.494-1057.713,475.491-1057.079,470.464-1057.079z
				 M305.24-979.074c0.41,0.771,0.142,1.73-0.595,2.154c-1.506,0.844-3.126,1.261-4.826,1.261c-2.773,0-4.88-1.133-5.108-1.256
				c-0.353-0.195-0.621-0.526-0.751-0.929c-0.12-0.405-0.074-0.843,0.13-1.209c0.412-0.748,1.404-1.033,2.146-0.635
				c0.021,0.014,1.57,0.843,3.591,0.843c1.163,0,2.257-0.282,3.239-0.836C303.762-980.08,304.794-979.816,305.24-979.074z"/>
		</g>
	</g>
	<g id="Capa_1">
	</g>
</g>
<g id="Capa_3">
</g>
</svg>
