<?xml version="1.0" encoding="utf-8"?>
<!-- Generator: Adobe Illustrator 16.0.0, SVG Export Plug-In . SVG Version: 6.00 Build 0)  -->
<!DOCTYPE svg PUBLIC "-//W3C//DTD SVG 1.1//EN" "http://www.w3.org/Graphics/SVG/1.1/DTD/svg11.dtd">
<svg version="1.1" xmlns="http://www.w3.org/2000/svg" xmlns:xlink="http://www.w3.org/1999/xlink" x="0px" y="0px" width="400px"
	 height="400px" viewBox="-1027.104 -1133.187 400 400" enable-background="new -1027.104 -1133.187 400 400" xml:space="preserve">
<g id="Layer_4">
</g>
<g id="Capa_2">
	<g id="Capa_1">
		<g>
			<path fill="#FFABDF" d="M-784.521-1030.863c-17.631-15.028-6.145-20.762-6.145-20.762s105.505-21.552,146.254-7.678
				c1.159,5.201-34.984,0.453-83.829,14.808C-737.776-1047.001-784.521-1030.863-784.521-1030.863z"/>
			<path fill="#FFABDF" d="M-789.475-886.848c-0.51,0-33.245-0.925-33.259,0c8.577,46.05-4.826,89.711,4.235,101.677
				c9.527,1.524,9.013,0.444,11.005,0.478C-798.895-793.421-809.643-844.116-789.475-886.848z"/>
			<path fill="#FFABDF" d="M-870.099-1030.863c17.631-15.028,6.144-20.762,6.144-20.762s-105.503-21.552-146.254-7.678
				c-1.156,5.201,34.985,0.453,83.829,14.808C-916.844-1047.001-870.099-1030.863-870.099-1030.863z"/>
			<path fill="#FFABDF" d="M-867.81-886.848c0.512,0,33.247-0.925,33.261,0c-8.577,46.05,4.826,89.711-4.235,101.677
				c-9.527,1.524-9.012,0.444-11.005,0.478C-858.387-793.421-847.64-844.116-867.81-886.848z"/>
			<g>
				<path fill="#FF36A9" d="M-827.122-1070.452c14.168,0,25.692-14.067,25.692-31.367c0-17.3-11.524-31.368-25.692-31.368
					c-14.167,0-25.691,14.068-25.691,31.368C-852.813-1084.519-841.289-1070.452-827.122-1070.452z M-827.122-1127.26
					c10.894,0,19.766,11.414,19.766,25.441c0,14.033-8.872,25.448-19.766,25.448c-10.896,0-19.765-11.422-19.765-25.448
					C-846.887-1115.852-838.018-1127.26-827.122-1127.26z M-645.139-1062.526c-6.607-2.376-16.232-3.524-29.457-3.524
					c-18.479,0-44.09,2.194-80.585,6.912c-11.311,1.458-21.135,3.246-29.197,5.299c-0.732,0.182-1.668,0.291-2.576,0.291
					c-0.612,0-1.024-0.053-1.159-0.088l-1.914-0.655c-3.703-0.993-7.438-2.335-10.917-3.584l-0.848-0.299
					c-2.085-0.734-3.878-1.376-5.329-1.788c-2.099-0.587-4.671-1.053-7.866-1.418c-3.264-0.365-8.584-0.56-11.92-0.56
					c-3.322,0-8.628,0.195-11.927,0.56c-3.179,0.365-5.75,0.824-7.845,1.418c-1.45,0.404-3.246,1.046-5.331,1.788l-0.98,0.352
					c-3.313,1.188-7.08,2.531-10.806,3.538l-2.194,0.607c-0.711,0.203-2.713,0.128-3.848-0.162
					c-8.072-2.06-17.896-3.84-29.207-5.299c-36.493-4.718-62.104-6.912-80.59-6.912c-13.225,0-22.858,1.155-29.466,3.524
					c-2.423,0.877-3.809,2.598-3.672,4.61c0.109,1.586,1.316,3.524,4.386,4.186c2.697,0.594,7.076,1.295,12.604,1.295
					c1.912,0,3.855-0.088,5.785-0.249c1.902-0.162,3.881-0.249,5.874-0.249c8.188,0,15.532,1.376,21.019,2.578
					c1.77,0.392,7.831,1.735,11.38,2.679l4.504,1.243c9.592,2.618,22.729,6.209,31.565,7.147c9.766,1.053,30.435,5.833,40.647,9.045
					c1.14,0.19,11.153,2.073,12.907,9.93l1.411,6.865l3.721,14.499c1.928,7.507,2.111,17.462,0.417,22.196l-1.02,2.84
					c-0.871,2.113-1.905,4.954-3.165,8.654l-2.769,7.347c-1.742,4.595-4.266,13.478-5.994,21.087l-0.554,1.965l-0.176,1.119h0.062
					l-0.366,1.816c-1.682,8.179-2.187,21.589-1.135,29.902l0.183,1.469c1.047,8.169,3.983,21.241,6.541,29.142l4.754,14.582
					l2.09,8.675c1.117,4.61,2.02,11.987,2.02,16.454l0.021,8.118l-0.75,8.494c-0.424,5.023,0.919,14.495,3.065,21.565
					c1.135,3.753,2.28,8.262,3.077,12.062c0.655,3.179,0.945,8.225,0.621,11.191c-0.065,0.565-0.134,1.145-0.213,1.714
					c-0.123,0.871-0.306,1.909-0.496,3.012c-0.523,3.044-1.126,6.487-0.992,9.11c0.25,4.991,1.399,10.898,3.077,15.82
					c2.215,6.464,5.167,7.428,6.719,7.428h0.121c1.789-0.042,4.254-1.177,5.825-6.38c2.182-7.22,2.835-16.413,1.487-20.936
					c-1.177-3.901-2.122-10.064-2.122-13.744c0-3.763,1.297-12.646,2.905-19.809c1.673-7.53,2.523-18.146,1.888-23.688l-1.142-9.791
					l-1.483-7.391c-0.776-3.92-1.087-11.937-0.688-17.858c0.282-4.221,1.045-10.708,1.935-16.524
					c0.164-1.08,0.394-2.396,0.637-3.795l0.114-0.667c0.405-2.321,0.913-5.208,1.177-7.261c0.797-6.182,1.316-13.429,1.316-18.465
					c0-4.889,0.985-8.54,1.638-10.064c0.649,1.538,1.601,5.199,1.601,10.064c0,4.995,0.519,12.242,1.33,18.465
					c0.25,1.974,0.708,4.647,1.167,7.238l0.236,1.427c0.188,1.112,0.371,2.159,0.505,3.058c0.899,5.792,1.664,12.275,1.937,16.515
					c0.405,5.959,0.088,13.976-0.7,17.863l-1.513,7.571l-1.107,9.606c-0.642,5.523,0.21,16.153,1.883,23.688
					c1.599,7.173,2.91,16.07,2.91,19.809c0,3.684-0.952,9.847-2.122,13.744c-1.349,4.522-0.7,13.711,1.48,20.935
					c1.573,5.204,4.05,6.344,5.919,6.386c1.923,0,4.652-1.284,6.751-7.423c1.687-4.912,2.831-10.82,3.077-15.824
					c0.13-2.618-0.473-6.061-0.999-9.105c-0.192-1.093-0.364-2.136-0.487-3.002c-0.085-0.63-0.169-1.274-0.229-1.914
					c-0.317-2.859-0.028-7.794,0.639-11.005c0.797-3.804,1.946-8.313,3.082-12.066c2.104-6.946,3.48-16.621,3.054-21.565
					l-0.732-8.29v-8.317c0-4.435,0.908-11.821,2.03-16.459l2.039-8.502l4.8-14.754c2.549-7.877,5.482-20.954,6.543-29.156
					l0.171-1.473c1.066-8.262,0.57-21.667-1.117-29.888l-0.32-1.534c-0.25-1.219-0.533-2.519-0.853-3.881
					c-0.028-0.134-0.065-0.292-0.139-0.635c-1.742-7.451-4.091-15.653-5.718-19.947l-6.965-18.838
					c-1.696-4.726-1.506-14.682,0.422-22.195l3.744-14.607l1.381-6.73c1.64-7.378,12.335-9.511,15.574-9.99l0.255-0.055
					c9.884-3.144,30.402-7.897,40.258-8.957c8.855-0.945,22.006-4.534,31.611-7.161l4.449-1.222c2.91-0.776,7.817-1.91,11.394-2.687
					c5.491-1.201,12.831-2.579,21.028-2.579c1.993,0,3.962,0.089,5.867,0.25c1.937,0.163,3.892,0.257,5.815,0.257
					c5.477,0,9.865-0.709,12.571-1.303c3.072-0.662,4.287-2.6,4.388-4.191C-641.321-1059.927-642.711-1061.649-645.139-1062.526z
					 M-834.635-899.51c0,4.819-0.5,11.839-1.284,17.873c-0.236,1.807-0.653,4.23-1.052,6.566l-0.088,0.496
					c-0.29,1.668-0.565,3.262-0.764,4.555c-0.904,5.815-1.678,12.451-1.983,16.908c-0.417,6.274-0.074,14.833,0.776,19.086
					l1.453,7.201l1.107,9.601c0.586,5.097-0.232,15.027-1.816,22.136c-1.654,7.46-3.003,16.797-3.003,20.824
					c0,4.05,1.031,10.82,2.308,15.083c1.08,3.596,0.398,12.117-1.464,18.224c-0.644,2.076-1.242,2.808-1.501,3.035
					c-0.343-0.241-1.295-1.163-2.34-4.212c-1.534-4.495-2.62-10.064-2.836-14.536c-0.095-2.146,0.5-5.569,0.945-8.077
					c0.195-1.163,0.392-2.252,0.507-3.165c0.086-0.593,0.155-1.191,0.22-1.77l0.037-0.264c0.348-3.267,0.033-8.86-0.709-12.46
					c-0.785-3.791-1.972-8.448-3.188-12.474c-1.965-6.501-3.248-15.394-2.868-19.828l0.741-8.688v-8.317
					c0-4.75-0.964-12.618-2.146-17.539l-2.145-8.846l-4.787-14.777c-2.479-7.599-5.329-20.296-6.353-28.293l-0.19-1.46
					c-0.999-7.905-0.519-20.634,1.075-28.372l0.324-1.529c0.088-0.454,0.188-0.936,0.296-1.413c0.579-0.014,1.147-0.019,1.708-0.019
					c24.64,0,30.977,14.045,32.563,20.347C-833.972-911.052-834.635-902.48-834.635-899.51z M-791.083-932.507l0.311,1.529
					c1.589,7.762,2.071,20.486,1.061,28.373l-0.186,1.469c-1.019,7.984-3.869,20.676-6.343,28.284l-4.842,14.939l-2.09,8.679
					c-1.195,4.921-2.155,12.789-2.155,17.543l0.014,8.499l0.727,8.507c0.399,4.458-0.894,13.35-2.866,19.818
					c-1.182,3.911-2.37,8.577-3.172,12.474c-0.656,3.146-1.117,8.799-0.711,12.446c0.07,0.667,0.151,1.357,0.244,2.039
					c0.129,0.932,0.317,2.021,0.547,3.309c0.468,2.757,1,5.885,0.903,7.961c-0.208,4.485-1.293,10.055-2.827,14.527
					c-1.04,3.04-1.997,3.961-2.342,4.216c-0.252-0.231-0.864-0.964-1.49-3.026c-1.858-6.158-2.548-14.675-1.474-18.238
					c1.27-4.295,2.308-11.056,2.308-15.083c0-4.008-1.348-13.35-3.009-20.824c-1.58-7.113-2.398-17.034-1.816-22.131l1.093-9.42
					l1.467-7.386c0.848-4.235,1.2-12.799,0.783-19.096c-0.297-4.397-1.075-11.033-1.988-16.899c-0.167-1.089-0.396-2.4-0.625-3.786
					l-0.144-0.797c-0.431-2.512-0.89-5.134-1.13-7.03c-0.779-6.098-1.293-13.113-1.293-17.881c0-3.091-0.693-11.932-3.716-14.272
					c2.159-17.237,27.524-20.198,34.332-20.685C-791.365-933.781-791.217-933.133-791.083-932.507z M-792.598-939.052
					c-8.151,0.616-29.665,3.647-36.15,18.491c-3.677-7.498-12.801-18.065-34.92-18.065l-0.473,0.005
					c1.802-6.167,4.956-16.692,7.778-25.049l2.462-6.756c4.483,1.005,16.874,3.503,29.64,3.503c8.431,0,15.655-1.066,21.487-3.186
					C-801.194-965.547-794.892-947.267-792.598-939.052z M-804.576-975.192l0.25,0.702c-5.347,1.944-12.043,2.929-19.935,2.929
					c-11.927,0-23.585-2.287-28.052-3.274l0.127-0.357c2.018-5.577,1.888-16.518-0.276-24.909l-2.127-8.309
					c1.133,0.303,2.35,0.377,3.503,0.188c4.935-0.756,12.682-1.66,21.565-1.66c8.473,0,16.378,0.81,23.486,2.409
					c1.133,0.256,2.417,0.29,3.63,0.02l-1.886,7.351C-806.446-991.69-806.573-980.747-804.576-975.192z M-799.539-1020.088
					l-1.247,5.583c-0.417,1.788-2.312,2.867-4.23,2.503c-7.418-1.674-15.66-2.524-24.503-2.524c-9.3,0-17.251,0.932-22.274,1.708
					c-2.106,0.316-4.05-1.019-4.467-2.922l-1.015-4.637c-0.512-2.309,0.681-5.609,2.553-7.062l5.681-4.393
					c1.703-1.318,5.556-1.682,7.474-0.689l6.797,3.482c3.286,1.681,9.261,1.87,12.669,0.397l9.524-4.143
					c0.6-0.263,1.365-0.412,2.208-0.412c1.863,0,3.813,0.696,4.861,1.721l3.684,3.631
					C-800.068-1026.122-799.011-1022.497-799.539-1020.088z M-658.47-1057.079c-1.779,0-3.582-0.081-5.384-0.235
					c-2.062-0.176-4.18-0.27-6.33-0.27c-8.563,0-16.223,1.443-21.941,2.692c-3.619,0.776-8.614,1.923-11.631,2.727l-4.277,1.182
					c-9.504,2.605-22.511,6.163-31.064,7.075c-10.472,1.127-30.921,5.9-40.74,9.058c-1.886,0.243-11.065,1.696-16.209,7.507
					c-0.663-1.512-1.534-2.828-2.525-3.808l-3.674-3.631c-1.96-1.93-4.963-3.084-8.04-3.084c-1.494,0-2.933,0.283-4.161,0.824
					l-9.511,4.145c-2.147,0.924-6.628,0.775-8.709-0.284l-6.795-3.478c-3.478-1.789-9.334-1.234-12.421,1.155l-5.683,4.396
					c-1.168,0.896-2.187,2.166-2.957,3.651c-4.562-5.685-12.291-7.122-13.519-7.303c-10.176-3.234-30.75-8.033-41.118-9.154
					c-8.533-0.912-21.54-4.469-31.043-7.074l-4.314-1.175c-3.065-0.817-8.033-1.963-11.61-2.727
					c-5.725-1.256-13.385-2.692-21.957-2.692c-2.136,0-4.268,0.094-6.32,0.27c-1.796,0.154-3.605,0.235-5.387,0.235
					c-5.03,0-9.038-0.634-11.543-1.168c5.934-2.079,15.335-3.124,27.96-3.124c23.78,0,55.102,3.651,79.726,6.83
					c11.118,1.438,20.759,3.187,28.641,5.197c1.983,0.5,4.704,0.568,6.251,0.136l2.18-0.595c3.814-1.039,7.507-2.348,11.267-3.697
					l0.276-0.109c2.24-0.789,4.172-1.479,5.609-1.877c1.849-0.526,4.105-0.938,7.101-1.275c3.1-0.338,8.237-0.533,11.409-0.533
					c3.179,0,8.315,0.194,11.401,0.533c2.97,0.344,5.287,0.756,7.122,1.275c1.479,0.419,3.494,1.135,5.871,1.978
					c3.03,1.095,7.196,2.6,11.125,3.66l1.909,0.641c1.562,0.439,4.3,0.358,6.237-0.136c7.887-2.017,17.525-3.766,28.641-5.197
					c24.619-3.179,55.934-6.83,79.719-6.83c12.623,0,22.029,1.053,27.956,3.124C-649.439-1057.713-653.442-1057.079-658.47-1057.079
					z M-823.693-979.074c0.41,0.771,0.141,1.73-0.595,2.155c-1.506,0.843-3.125,1.26-4.826,1.26c-2.773,0-4.879-1.133-5.109-1.256
					c-0.352-0.195-0.621-0.526-0.75-0.929c-0.121-0.405-0.074-0.843,0.13-1.209c0.412-0.748,1.404-1.033,2.145-0.635
					c0.021,0.014,1.571,0.843,3.591,0.843c1.163,0,2.257-0.282,3.239-0.836C-825.171-980.08-824.14-979.816-823.693-979.074z"/>
			</g>
		</g>
	</g>
</g>
<g id="Capa_3">
</g>
</svg>
