<?xml version="1.0" encoding="utf-8"?>
<!-- Generator: Adobe Illustrator 16.0.0, SVG Export Plug-In . SVG Version: 6.00 Build 0)  -->
<!DOCTYPE svg PUBLIC "-//W3C//DTD SVG 1.1//EN" "http://www.w3.org/Graphics/SVG/1.1/DTD/svg11.dtd">
<svg version="1.1" xmlns="http://www.w3.org/2000/svg" xmlns:xlink="http://www.w3.org/1999/xlink" x="0px" y="0px" width="400px"
	 height="400px" viewBox="615.749 -631.953 400 400" enable-background="new 615.749 -631.953 400 400" xml:space="preserve">
<g id="Layer_4">
</g>
<g id="Capa_2">
	<g>
		<path fill="#BFD2EC" d="M647.95-562.932v8.59c0,0-27.841,3.375-27.688-1.457C620.415-560.632,647.95-562.932,647.95-562.932z"/>
		<path fill="#BFD2EC" d="M982.64-562.932v8.59c0,0,27.841,3.375,27.688-1.457S982.64-562.932,982.64-562.932z"/>
		<path fill="#BFD2EC" d="M786.118-269.056h17.932c0,0-1.209,35.476-7.26,34.278C785.897-235.445,786.118-269.056,786.118-269.056z"
			/>
		<path fill="#BFD2EC" d="M823.897-269.056h19.143c0,0-1.291,35.476-7.751,34.278C823.664-235.445,823.897-269.056,823.897-269.056z
			"/>
		<g>
			<path fill="#BFD2EC" d="M815.432-497.472c0,0,0.502,5.082,0.857,12.706c0.094,1.906,0.194,3.971,0.258,6.154
				c0.073,2.184,0.166,4.487,0.202,6.87c0.039,2.382,0.123,4.844,0.13,7.345c0.017,2.502,0.034,5.043,0.052,7.584
				c-0.017,2.541-0.034,5.082-0.051,7.584c-0.001,2.501-0.089,4.963-0.127,7.345c-0.105,4.765-0.267,9.212-0.46,13.023
				c-0.356,7.624-0.861,12.706-0.861,12.706s-0.505-5.082-0.861-12.706c-0.193-3.812-0.354-8.259-0.46-13.023
				c-0.038-2.382-0.126-4.844-0.127-7.345c-0.017-2.502-0.034-5.043-0.051-7.584c0.018-2.541,0.035-5.082,0.052-7.584
				c0.007-2.501,0.091-4.963,0.13-7.345c0.036-2.383,0.129-4.686,0.202-6.87c0.063-2.184,0.164-4.249,0.258-6.154
				C814.93-492.39,815.432-497.472,815.432-497.472z"/>
		</g>
		<path fill="#BFD2EC" d="M880.836-531.981c-2.063-3.381-7.487-3.837-12.118-1.014c-4.63,2.821-6.71,7.85-4.648,11.231
			c2.061,3.382,7.482,3.837,12.112,1.018C880.815-523.57,882.896-528.598,880.836-531.981z"/>
		<path fill="#BFD2EC" d="M750.466-531.981c2.063-3.381,7.487-3.837,12.117-1.014c4.631,2.821,6.71,7.85,4.649,11.231
			s-7.482,3.837-12.113,1.018C750.486-523.57,748.405-528.598,750.466-531.981z"/>
		<g>
			<g>
				<path fill="#7AA7DC" d="M819.146-468.658c-0.985,0.555-2.077,0.837-3.235,0.837c-2.015,0-3.564-0.827-3.583-0.842
					c-0.745-0.397-1.734-0.115-2.146,0.634c-0.201,0.365-0.247,0.801-0.125,1.208c0.125,0.402,0.398,0.73,0.745,0.925
					c0.231,0.125,2.334,1.254,5.103,1.254c1.697,0,3.316-0.417,4.817-1.259c0.733-0.421,1.004-1.378,0.595-2.15
					C820.87-468.792,819.841-469.055,819.146-468.658z"/>
			</g>
		</g>
		<g>
			<g>
				<g>
					<path fill="#7AA7DC" d="M822.875-441.635c-19.887,0-40.689-2.787-41.976-2.963c-1.295-0.176-2.204-1.369-2.026-2.665
						c0.176-1.295,1.36-2.208,2.665-2.025c0.46,0.06,46.152,6.18,66.181,0.462c1.251-0.355,2.567,0.366,2.929,1.629
						c0.358,1.256-0.37,2.567-1.629,2.926C842.124-442.304,832.608-441.635,822.875-441.635z"/>
				</g>
			</g>
			<g>
				<g>
					<g>
						<path fill="#7AA7DC" d="M1009.639-561.122c-6.597-2.372-16.204-3.518-29.406-3.518c-18.451,0-44.016,2.19-80.447,6.9
							c-11.292,1.456-21.099,3.24-29.153,5.29c-0.726,0.182-1.662,0.29-2.567,0.29c-0.61,0-1.024-0.054-1.16-0.088l-1.906-0.653
							c-3.698-0.991-7.425-2.332-10.903-3.578l-0.842-0.299c-2.082-0.733-3.874-1.374-5.322-1.784
							c-2.096-0.586-4.663-1.052-7.853-1.416c-3.262-0.364-20.997-0.993-24.325-0.993s-21.069,0.629-24.328,0.993
							c-3.189,0.364-5.757,0.83-7.853,1.416c-1.447,0.41-3.24,1.051-5.322,1.784l-0.842,0.299c-3.48,1.246-7.207,2.587-10.905,3.578
							l-1.906,0.653c-0.136,0.034-0.55,0.088-1.161,0.088c-0.904,0-1.841-0.108-2.567-0.29c-8.054-2.05-17.86-3.834-29.152-5.29
							c-36.434-4.71-62.001-6.9-80.452-6.9c-13.202,0-22.81,1.146-29.406,3.518c-2.424,0.876-3.812,2.594-3.701,4.576
							c0.102,1.589,1.313,3.523,4.381,4.185c2.701,0.593,7.082,1.301,12.55,1.301c1.92,0,3.872-0.095,5.806-0.257
							c1.901-0.161,3.867-0.25,5.856-0.25c8.184,0,15.511,1.375,20.992,2.574c3.574,0.775,8.468,1.907,11.376,2.683l4.44,1.22
							c9.59,2.623,22.718,6.206,31.559,7.149c9.839,1.058,18.082,10.157,27.949,13.296l0.257,0.056
							c3.233,0.477,13.905,2.606,15.543,9.974l4.541,7.442l3.955,14.197c1.741,6.777,11.578,36.785,11.273,46.208
							c-0.216,0.787-0.426,1.601-0.639,2.405c1.658,0.294,3.24,0.902,4.619,1.823c0.071-0.264,0.113-0.419,0.113-0.419
							c1.993-5.549-8.697-42.75-10.853-51.146c0,0-3.465-12.91-3.72-13.998c0,0-7.783-13.78-7.89-13.542
							c-5.135-5.801-14.298-7.251-16.179-7.494c-9.805-3.152-17.972-12.271-28.431-13.396c-8.54-0.91-21.524-4.462-31.008-7.062
							l-4.274-1.18c-3.014-0.803-8-1.947-11.611-2.723c-5.708-1.246-13.354-2.688-21.903-2.688c-2.146,0-4.261,0.094-6.319,0.27
							c-1.799,0.153-3.599,0.234-5.375,0.234c-5.02,0-9.016-0.632-11.519-1.165c5.916-2.068,15.307-3.119,27.908-3.119
							c23.747,0,55.009,3.645,79.587,6.818c11.1,1.429,20.722,3.175,28.593,5.188c1.936,0.493,4.672,0.574,6.227,0.136l1.908-0.64
							c3.923-1.058,8.079-2.561,11.108-3.653c2.371-0.841,4.386-1.556,5.861-1.974c1.832-0.519,4.145-0.93,7.11-1.273
							c3.081-0.338,20.629-0.967,23.803-0.967c3.173,0,20.72,0.629,23.798,0.967c2.968,0.344,5.278,0.755,7.112,1.273
							c1.476,0.418,3.49,1.133,5.861,1.974c3.027,1.093,7.184,2.596,11.106,3.653l1.908,0.64c1.555,0.438,4.291,0.357,6.227-0.136
							c7.871-2.013,17.493-3.759,28.593-5.188c24.575-3.174,55.835-6.818,79.582-6.818c12.602,0,21.992,1.051,27.908,3.119
							c-2.503,0.533-6.499,1.165-11.519,1.165c-1.776,0-3.576-0.081-5.375-0.234c-2.059-0.176-4.173-0.27-6.319-0.27
							c-8.549,0-16.195,1.441-21.903,2.688c-3.611,0.775-8.598,1.92-11.611,2.723l-4.272,1.18
							c-9.482,2.601-22.468,6.152-31.007,7.062c-10.46,1.125-18.624,10.244-28.429,13.396c-1.881,0.243-11.045,1.693-16.18,7.494
							c-0.106-0.238-7.89,13.542-7.89,13.542c-0.254,1.088-3.719,13.998-3.719,13.998c-2.096,8.158-14.341,44.256-13.198,51.38
							c0.241-0.085,0.481-0.176,0.725-0.242c1.471-0.405,2.872-0.512,4.195-0.392c-0.231-0.876-0.46-1.762-0.696-2.618
							c-0.305-9.423,11.748-40.222,13.489-46.999l3.955-14.197l4.541-7.442c1.637-7.367,12.31-9.497,15.543-9.974l0.257-0.056
							c9.867-3.139,18.107-12.238,27.947-13.296c8.84-0.943,21.969-4.526,31.558-7.149l4.438-1.22
							c2.908-0.775,7.802-1.907,11.376-2.683c5.481-1.199,12.809-2.574,20.992-2.574c1.989,0,3.955,0.089,5.856,0.25
							c1.934,0.162,3.886,0.257,5.806,0.257c5.468,0,9.849-0.708,12.55-1.301c3.067-0.661,4.279-2.596,4.381-4.185
							C1013.452-558.528,1012.063-560.246,1009.639-561.122z"/>
					</g>
				</g>
			</g>
		</g>
		<g>
			<g>
				<path fill="#7AA7DC" d="M800.185-397.412c-12.25,0-25.42-5.195-26.162-5.491l1.76-4.399c0.227,0.093,22.848,9.003,34.375,3.241
					l2.119,4.237C808.761-398.067,804.529-397.412,800.185-397.412z"/>
			</g>
		</g>
		<g>
			<g>
				<path fill="#7AA7DC" d="M828.569-397.412c-4.348,0-8.573-0.654-12.092-2.412l2.119-4.237
					c11.546,5.784,34.146-3.148,34.375-3.241l1.758,4.399C853.987-402.608,840.814-397.412,828.569-397.412z"/>
			</g>
		</g>
		<g>
			<g>
				<g>
					<g>
						<path fill="#7AA7DC" d="M832.904-231.952c-0.144,0-0.287-0.005-0.431-0.014c-3.622-0.208-6.698-3.095-8.451-7.915
							c-1.854-5.098-1.393-13.207-0.943-21.047c0.342-6.023,0.698-12.254-0.264-15.132c-2.197-6.597-7.018-33.501-2.244-57.269
							c3.923-19.517,1.597-29.8-0.272-38.063c-0.819-3.607-1.592-7.018-1.771-10.694c-0.921-18.391-5.996-17.777-6.042-17.843
							c-0.768-1.045-0.56-2.521,0.477-3.303s2.498-0.597,3.289,0.431c0.222,0.286,5.995,0.31,7.004,20.479
							c0.166,3.271,0.86,6.333,1.66,9.886c1.971,8.701,4.423,19.535,0.301,40.042c-4.589,22.838-0.005,48.549,2.096,54.836
							c1.244,3.742,0.897,9.839,0.495,16.902c-0.402,7.018-0.855,14.974,0.666,19.156c1.078,2.961,2.632,4.709,4.274,4.807
							c1.785,0.069,3.979-1.832,5.593-5.057c4.08-8.16,2.733-14.451,1.305-21.117c-0.981-4.584-1.994-9.326-0.944-14.419
							c2.984-14.405,7.062-34.13,1.813-53.374c-0.93-3.404,0.218-8.952,2.124-18.143c2.206-10.686,5.546-26.83,7.104-48.184
							c2.207-30.25-3.763-47.82-3.823-47.992c-0.428-1.234,0.223-2.586,1.455-3.016c1.23-0.428,2.586,0.213,3.017,1.448
							c0.261,0.744,6.36,18.575,4.075,49.906c-1.58,21.659-4.959,37.988-7.193,48.794c-1.575,7.614-2.817,13.633-2.188,15.942
							c5.547,20.336,1.333,40.703-1.743,55.576c-0.852,4.116,0.018,8.174,0.938,12.471c1.46,6.833,3.118,14.581-1.702,24.226
							C840.125-234.728,836.619-231.952,832.904-231.952z"/>
					</g>
				</g>
			</g>
			<g>
				<g>
					<g>
						<path fill="#7AA7DC" d="M796.193-231.952c-3.715,0-7.222-2.775-9.673-7.679c-4.82-9.645-3.164-17.393-1.703-24.226
							c0.921-4.297,1.791-8.354,0.939-12.471c-3.076-14.873-7.29-35.24-1.744-55.576c0.629-2.309-0.615-8.328-2.188-15.942
							c-2.239-10.806-5.616-27.135-7.198-48.794c-2.285-31.331,3.816-49.162,4.075-49.906c0.435-1.23,1.781-1.879,3.017-1.448
							c1.234,0.43,1.887,1.781,1.457,3.016c-0.061,0.172-6.027,17.741-3.821,47.994c1.559,21.352,4.899,37.496,7.105,48.182
							c1.906,9.191,3.053,14.739,2.123,18.143c-5.25,19.244-1.17,38.969,1.813,53.374c1.05,5.093,0.037,9.835-0.943,14.419
							c-1.43,6.666-2.775,12.957,1.305,21.117c1.609,3.225,3.756,5.121,5.593,5.057c1.642-0.098,3.196-1.846,4.274-4.807
							c1.521-4.182,1.068-12.138,0.666-19.156c-0.402-7.063-0.75-13.16,0.495-16.902c2.1-6.287,6.684-31.998,2.095-54.836
							c-4.121-20.507-1.67-31.341,0.301-40.042c0.801-3.553,1.494-6.615,1.661-9.886c1.008-20.169,5.598-20.192,5.819-20.479
							c0.8-1.032,2.29-1.222,3.321-0.426c1.036,0.8,1.226,2.285,0.426,3.321c-0.028,0.042-3.918-0.571-4.839,17.819
							c-0.181,3.677-0.953,7.087-1.771,10.694c-1.869,8.263-4.196,18.546-0.273,38.063c4.774,23.768-0.046,50.672-2.243,57.269
							c-0.962,2.878-0.606,9.108-0.264,15.132c0.448,7.841,0.911,15.95-0.943,21.047c-1.754,4.82-4.83,7.707-8.452,7.915
							C796.479-231.957,796.336-231.952,796.193-231.952z"/>
					</g>
				</g>
			</g>
		</g>
		<g>
			<path fill="#7AA7DC" d="M815.257-401.379c-4.46,0-8.153-2.072-10.058-3.832c-0.96-0.889-1.018-2.388-0.127-3.348
				c0.884-0.959,2.383-1.015,3.338-0.136c0.666,0.601,6.597,5.59,13.804-0.076c1.027-0.812,2.519-0.63,3.326,0.396
				c0.807,1.026,0.631,2.516-0.398,3.325C821.71-402.348,818.304-401.379,815.257-401.379z"/>
		</g>
		<path fill="#BFD2EC" d="M783-517.981c-3.854,0-6.99,3.134-6.99,6.987s3.137,6.989,6.99,6.989c3.851,0,6.987-3.136,6.987-6.989
			S786.85-517.981,783-517.981z M783-507.259c-2.062,0-3.735-1.677-3.735-3.735s1.674-3.733,3.735-3.733
			c2.059,0,3.733,1.675,3.733,3.733S785.058-507.259,783-507.259z"/>
		<path fill="#BFD2EC" d="M847.864-517.981c-3.851,0-6.987,3.134-6.987,6.987s3.137,6.989,6.987,6.989
			c3.854,0,6.99-3.136,6.99-6.989S851.718-517.981,847.864-517.981z M847.864-507.259c-2.059,0-3.732-1.677-3.732-3.735
			s1.674-3.733,3.732-3.733c2.062,0,3.735,1.675,3.735,3.733S849.926-507.259,847.864-507.259z"/>
		<path fill="#BFD2EC" d="M792.142-600.572c0,15.949,10.494,28.879,23.439,28.879c12.953,0,23.447-12.93,23.447-28.879
			c0-15.948-10.494-28.878-23.447-28.878C802.636-629.45,792.142-616.52,792.142-600.572z"/>
		<g>
			<g>
				<path fill="#7AA7DC" d="M815.749-569.325c14.146,0,25.648-14.043,25.648-31.313c0-17.271-11.502-31.315-25.648-31.315
					c-14.144,0-25.648,14.044-25.648,31.315C790.1-583.368,801.605-569.325,815.749-569.325z M815.749-626.037
					c10.876,0,19.731,11.395,19.731,25.398c0,14.01-8.855,25.405-19.731,25.405c-10.878,0-19.731-11.403-19.731-25.405
					C796.017-614.648,804.871-626.037,815.749-626.037z"/>
			</g>
		</g>
	</g>
	<g id="Capa_1">
	</g>
</g>
<g id="Capa_3">
</g>
</svg>
