<?xml version="1.0" encoding="utf-8"?>
<!-- Generator: Adobe Illustrator 16.0.0, SVG Export Plug-In . SVG Version: 6.00 Build 0)  -->
<!DOCTYPE svg PUBLIC "-//W3C//DTD SVG 1.1//EN" "http://www.w3.org/Graphics/SVG/1.1/DTD/svg11.dtd">
<svg version="1.1" xmlns="http://www.w3.org/2000/svg" xmlns:xlink="http://www.w3.org/1999/xlink" x="0px" y="0px" width="400px"
	 height="400px" viewBox="615.749 -1133.187 400 400" enable-background="new 615.749 -1133.187 400 400" xml:space="preserve">
<g id="Layer_4">
</g>
<g id="Capa_2">
	<g id="Capa_1">
	</g>
	<g>
		<path fill="#FFABDF" d="M792.328-764.166h14.759c0,0-0.996,29.197-5.976,28.21C792.147-736.505,792.328-764.166,792.328-764.166z"
			/>
		<path fill="#FFABDF" d="M836.961-764.166h-14.759c0,0,0.996,29.197,5.976,28.21C837.141-736.505,836.961-764.166,836.961-764.166z
			"/>
		<g>
			<path fill="#FFABDF" d="M813.435-1004.207c-0.001,0,0.502,4.2,0.857,10.5c0.093,1.575,0.194,3.281,0.259,5.086
				c0.072,1.805,0.166,3.708,0.201,5.676c0.039,1.969,0.123,4.003,0.13,6.07c0.017,2.067,0.034,4.167,0.052,6.268
				c-0.017,2.1-0.034,4.2-0.051,6.267c0,2.067-0.089,4.101-0.127,6.07c-0.105,3.938-0.266,7.613-0.46,10.763
				c-0.356,6.3-0.862,10.5-0.861,10.5s-0.505-4.2-0.861-10.5c-0.194-3.15-0.354-6.825-0.46-10.763
				c-0.038-1.969-0.127-4.003-0.127-6.07c-0.017-2.067-0.034-4.167-0.051-6.267c0.018-2.1,0.035-4.2,0.052-6.268
				c0.007-2.067,0.091-4.102,0.13-6.07c0.035-1.969,0.129-3.872,0.201-5.676c0.064-1.805,0.166-3.511,0.259-5.086
				C812.933-1000.007,813.436-1004.207,813.435-1004.207z"/>
		</g>
		<g>
			<path fill="#FFABDF" d="M855.194-1037.395c-1.685-2.759-6.109-3.13-9.886-0.827c-3.779,2.301-5.475,6.406-3.793,9.163
				c1.68,2.762,6.103,3.133,9.882,0.83C855.177-1030.532,856.876-1034.635,855.194-1037.395z"/>
		</g>
		<g>
			<path fill="#FFABDF" d="M772.714-1037.394c1.685-2.759,6.109-3.131,9.886-0.828c3.779,2.302,5.476,6.406,3.793,9.165
				c-1.68,2.76-6.103,3.131-9.881,0.829C772.73-1030.531,771.032-1034.634,772.714-1037.394z"/>
		</g>
		<path fill="#FFABDF" d="M792.265-1101.935c0,15.976,10.512,28.928,23.479,28.928c12.975,0,23.486-12.952,23.486-28.928
			c0-15.976-10.512-28.927-23.486-28.927C802.777-1130.862,792.265-1117.91,792.265-1101.935z"/>
		<path fill="#FFABDF" d="M657.806-1064.726v8.605c0,0-27.888,3.38-27.735-1.459C630.224-1062.42,657.806-1064.726,657.806-1064.726
			z"/>
		<path fill="#FFABDF" d="M973.69-1064.726v8.605c0,0,27.889,3.38,27.735-1.459S973.69-1064.726,973.69-1064.726z"/>
		<g>
			<path fill="#FFABDF" d="M794.728-1025.939c-2.747,0-4.985,2.236-4.985,4.985s2.238,4.985,4.985,4.985
				c2.748,0,4.983-2.236,4.983-4.985S797.476-1025.939,794.728-1025.939z M794.728-1018.291c-1.471,0-2.664-1.194-2.664-2.663
				s1.193-2.663,2.664-2.663c1.469,0,2.662,1.194,2.662,2.663S796.197-1018.291,794.728-1018.291z"/>
		</g>
		<g>
			<path fill="#FFABDF" d="M835.06-1025.939c-2.747,0-4.985,2.236-4.985,4.985s2.238,4.985,4.985,4.985
				c2.748,0,4.983-2.236,4.983-4.985S837.808-1025.939,835.06-1025.939z M835.06-1018.291c-1.471,0-2.664-1.194-2.664-2.663
				s1.193-2.663,2.664-2.663c1.469,0,2.662,1.194,2.662,2.663S836.529-1018.291,835.06-1018.291z"/>
		</g>
		<g>
			<path fill="#FF36A9" d="M815.731-1070.452c14.167,0,25.691-14.067,25.691-31.367c0-17.3-11.524-31.368-25.691-31.368
				c-14.168,0-25.692,14.068-25.692,31.368C790.039-1084.519,801.563-1070.452,815.731-1070.452z M815.731-1127.26
				c10.894,0,19.765,11.414,19.765,25.441c0,14.033-8.871,25.448-19.765,25.448c-10.896,0-19.766-11.422-19.766-25.448
				C795.966-1115.852,804.835-1127.26,815.731-1127.26z M997.714-1062.526c-6.607-2.376-16.231-3.524-29.456-3.524
				c-18.479,0-44.09,2.194-80.586,6.912c-11.311,1.458-21.132,3.246-29.197,5.299c-0.731,0.182-1.668,0.291-2.573,0.291
				c-0.614,0-1.026-0.053-1.161-0.088l-1.911-0.654c-3.705-0.993-7.439-2.335-10.92-3.584l-0.848-0.299
				c-2.083-0.734-3.879-1.376-5.329-1.788c-2.099-0.587-4.671-1.053-7.865-1.418c-3.265-0.365-8.584-0.56-11.921-0.56
				c-3.322,0-8.628,0.195-11.927,0.56c-3.179,0.365-5.751,0.824-7.845,1.418c-1.45,0.404-3.246,1.046-5.331,1.788l-0.98,0.352
				c-3.313,1.188-7.08,2.531-10.806,3.538l-2.194,0.607c-0.711,0.203-2.713,0.128-3.849-0.162c-8.071-2.06-17.895-3.84-29.206-5.299
				c-36.493-4.718-62.104-6.912-80.59-6.912c-13.225,0-22.858,1.155-29.466,3.524c-2.424,0.877-3.809,2.598-3.672,4.61
				c0.108,1.586,1.315,3.524,4.386,4.186c2.696,0.594,7.075,1.295,12.604,1.295c1.911,0,3.855-0.088,5.785-0.249
				c1.902-0.162,3.881-0.249,5.873-0.249c8.188,0,15.532,1.376,21.019,2.578c1.771,0.392,7.831,1.735,11.381,2.679l4.504,1.243
				c9.592,2.618,22.729,6.209,31.564,7.147c9.766,1.053,30.435,5.833,40.647,9.045c1.14,0.19,11.153,2.073,12.907,9.93l1.411,6.865
				l3.721,14.499c1.928,7.507,2.11,17.462,0.417,22.196l-1.02,2.84c-0.871,2.113-1.904,4.954-3.164,8.653l-2.77,7.347
				c-1.742,4.595-4.265,13.478-5.993,21.087l-0.554,1.965l-0.176,1.119h0.062l-0.366,1.816c-1.683,8.179-2.188,21.589-1.136,29.902
				l0.184,1.469c1.047,8.169,3.982,21.241,6.54,29.142l4.754,14.583l2.09,8.674c1.117,4.611,2.021,11.988,2.021,16.455l0.021,8.118
				l-0.751,8.494c-0.424,5.023,0.92,14.495,3.065,21.565c1.135,3.753,2.279,8.262,3.076,12.062c0.656,3.179,0.945,8.225,0.621,11.19
				c-0.064,0.565-0.134,1.145-0.213,1.715c-0.123,0.871-0.306,1.909-0.496,3.012c-0.523,3.044-1.126,6.487-0.991,9.11
				c0.25,4.991,1.399,10.899,3.076,15.82c2.215,6.464,5.167,7.428,6.72,7.428h0.12c1.788-0.042,4.254-1.177,5.824-6.381
				c2.183-7.219,2.836-16.413,1.487-20.935c-1.177-3.901-2.122-10.064-2.122-13.744c0-3.763,1.298-12.646,2.905-19.809
				c1.673-7.53,2.523-18.146,1.889-23.688l-1.143-9.792l-1.482-7.391c-0.776-3.92-1.087-11.937-0.688-17.858
				c0.283-4.221,1.045-10.708,1.935-16.524c0.165-1.08,0.395-2.396,0.638-3.795l0.113-0.667c0.405-2.321,0.913-5.208,1.177-7.261
				c0.797-6.182,1.316-13.429,1.316-18.465c0-4.889,0.984-8.54,1.638-10.064c0.648,1.538,1.601,5.199,1.601,10.064
				c0,4.995,0.52,12.242,1.33,18.465c0.25,1.974,0.709,4.647,1.168,7.238l0.236,1.427c0.188,1.112,0.371,2.159,0.505,3.058
				c0.899,5.792,1.664,12.275,1.938,16.515c0.405,5.959,0.088,13.976-0.7,17.863l-1.513,7.571l-1.107,9.606
				c-0.642,5.523,0.211,16.153,1.884,23.688c1.599,7.173,2.909,16.07,2.909,19.809c0,3.684-0.952,9.847-2.122,13.744
				c-1.349,4.522-0.699,13.711,1.48,20.936c1.573,5.204,4.05,6.343,5.92,6.385c1.923,0,4.652-1.283,6.751-7.423
				c1.687-4.912,2.834-10.82,3.077-15.824c0.13-2.618-0.473-6.061-0.999-9.105c-0.192-1.094-0.363-2.136-0.486-3.002
				c-0.086-0.63-0.169-1.274-0.229-1.914c-0.317-2.859-0.027-7.794,0.64-11.005c0.797-3.804,1.946-8.313,3.081-12.066
				c2.104-6.946,3.48-16.621,3.057-21.565l-0.734-8.29v-8.317c0-4.435,0.91-11.821,2.031-16.459l2.037-8.503l4.801-14.754
				c2.551-7.877,5.481-20.954,6.542-29.155l0.174-1.474c1.066-8.262,0.568-21.667-1.119-29.888l-0.319-1.534
				c-0.25-1.219-0.533-2.519-0.851-3.881c-0.027-0.134-0.066-0.292-0.141-0.635c-1.742-7.451-4.092-15.653-5.719-19.947
				l-6.964-18.838c-1.696-4.727-1.506-14.682,0.424-22.195l3.741-14.607l1.381-6.73c1.641-7.378,12.335-9.511,15.574-9.99
				l0.255-0.055c9.884-3.144,30.404-7.897,40.258-8.957c8.855-0.945,22.006-4.534,31.611-7.161l4.448-1.222
				c2.913-0.776,7.817-1.91,11.395-2.687c5.491-1.201,12.831-2.579,21.028-2.579c1.992,0,3.962,0.089,5.866,0.25
				c1.937,0.163,3.893,0.257,5.815,0.257c5.477,0,9.865-0.709,12.571-1.303c3.072-0.662,4.286-2.6,4.388-4.191
				C1001.532-1059.927,1000.142-1061.649,997.714-1062.526z M808.218-899.51c0,4.819-0.501,11.839-1.284,17.873
				c-0.236,1.807-0.653,4.23-1.052,6.566l-0.088,0.496c-0.289,1.668-0.565,3.262-0.765,4.555
				c-0.903,5.815-1.677,12.451-1.983,16.908c-0.417,6.274-0.073,14.833,0.776,19.086l1.453,7.201l1.107,9.602
				c0.586,5.097-0.231,15.027-1.816,22.135c-1.654,7.46-3.003,16.797-3.003,20.824c0,4.05,1.031,10.82,2.308,15.083
				c1.08,3.596,0.398,12.117-1.464,18.225c-0.645,2.076-1.242,2.808-1.502,3.035c-0.343-0.241-1.295-1.163-2.34-4.212
				c-1.533-4.495-2.62-10.064-2.836-14.536c-0.095-2.145,0.501-5.57,0.945-8.077c0.194-1.163,0.392-2.252,0.508-3.165
				c0.086-0.593,0.155-1.191,0.22-1.77l0.037-0.264c0.348-3.267,0.032-8.86-0.709-12.46c-0.785-3.79-1.972-8.447-3.188-12.474
				c-1.965-6.501-3.249-15.394-2.869-19.828l0.742-8.688v-8.317c0-4.75-0.964-12.618-2.146-17.539l-2.146-8.846l-4.787-14.777
				c-2.479-7.599-5.328-20.296-6.353-28.293l-0.19-1.46c-0.998-7.905-0.519-20.634,1.075-28.372l0.324-1.529
				c0.089-0.454,0.188-0.936,0.297-1.413c0.579-0.014,1.146-0.019,1.708-0.019c24.64,0,30.977,14.045,32.563,20.347
				C808.88-911.052,808.218-902.48,808.218-899.51z M851.77-932.507l0.31,1.529c1.592,7.762,2.071,20.486,1.062,28.373l-0.183,1.469
				c-1.022,7.984-3.872,20.676-6.347,28.284l-4.84,14.939l-2.092,8.679c-1.195,4.921-2.154,12.79-2.154,17.543l0.014,8.498
				l0.728,8.508c0.4,4.458-0.895,13.35-2.866,19.818c-1.182,3.911-2.37,8.577-3.172,12.474c-0.655,3.146-1.116,8.799-0.711,12.446
				c0.069,0.667,0.15,1.357,0.243,2.039c0.13,0.932,0.317,2.021,0.547,3.309c0.468,2.757,1.001,5.885,0.903,7.961
				c-0.209,4.485-1.293,10.055-2.826,14.526c-1.041,3.04-1.997,3.962-2.343,4.217c-0.253-0.231-0.864-0.964-1.489-3.026
				c-1.858-6.158-2.549-14.675-1.474-18.238c1.27-4.295,2.308-11.056,2.308-15.083c0-4.008-1.349-13.35-3.01-20.824
				c-1.58-7.113-2.398-17.034-1.816-22.131l1.094-9.42l1.466-7.386c0.849-4.235,1.2-12.798,0.783-19.096
				c-0.296-4.397-1.075-11.033-1.987-16.899c-0.167-1.089-0.396-2.4-0.626-3.786l-0.144-0.797c-0.431-2.512-0.89-5.134-1.131-7.029
				c-0.778-6.098-1.293-13.114-1.293-17.882c0-3.091-0.692-11.932-3.716-14.272c2.159-17.237,27.524-20.198,34.331-20.685
				C851.487-933.781,851.635-933.132,851.77-932.507z M850.257-939.052c-8.152,0.616-29.667,3.647-36.152,18.491
				c-3.677-7.498-12.801-18.065-34.92-18.065l-0.473,0.005c1.803-6.167,4.956-16.692,7.778-25.049l2.463-6.756
				c4.482,1.005,16.873,3.503,29.64,3.503c8.431,0,15.655-1.066,21.486-3.186C841.659-965.547,847.961-947.267,850.257-939.052z
				 M838.276-975.192l0.25,0.702c-5.347,1.944-12.043,2.929-19.934,2.929c-11.928,0-23.586-2.287-28.053-3.274l0.127-0.357
				c2.019-5.577,1.889-16.518-0.275-24.909l-2.127-8.309c1.133,0.303,2.35,0.377,3.503,0.188c4.936-0.756,12.683-1.66,21.565-1.66
				c8.473,0,16.378,0.81,23.486,2.409c1.133,0.256,2.416,0.29,3.631,0.02l-1.884,7.351
				C836.407-991.69,836.279-980.747,838.276-975.192z M843.313-1020.088l-1.244,5.583c-0.417,1.788-2.314,2.867-4.232,2.503
				c-7.419-1.674-15.66-2.524-24.504-2.524c-9.3,0-17.251,0.932-22.274,1.708c-2.105,0.316-4.05-1.019-4.467-2.922l-1.015-4.637
				c-0.512-2.309,0.682-5.609,2.553-7.062l5.682-4.393c1.703-1.318,5.556-1.682,7.474-0.689l6.798,3.482
				c3.285,1.681,9.261,1.87,12.669,0.397l9.524-4.143c0.601-0.263,1.365-0.412,2.208-0.412c1.863,0,3.813,0.696,4.861,1.721
				l3.684,3.631C842.785-1026.122,843.844-1022.497,843.313-1020.088z M984.383-1057.079c-1.779,0-3.582-0.081-5.385-0.235
				c-2.062-0.176-4.18-0.27-6.329-0.27c-8.563,0-16.223,1.443-21.94,2.692c-3.619,0.776-8.614,1.923-11.631,2.727l-4.277,1.182
				c-9.501,2.605-22.508,6.163-31.062,7.075c-10.475,1.127-30.921,5.9-40.741,9.058c-1.887,0.243-11.063,1.696-16.209,7.507
				c-0.66-1.512-1.531-2.828-2.523-3.808l-3.677-3.631c-1.96-1.93-4.963-3.084-8.04-3.084c-1.494,0-2.933,0.283-4.16,0.824
				l-9.511,4.145c-2.148,0.924-6.629,0.775-8.71-0.284l-6.795-3.478c-3.478-1.789-9.335-1.233-12.421,1.155l-5.684,4.395
				c-1.167,0.896-2.187,2.166-2.956,3.651c-4.562-5.685-12.291-7.122-13.519-7.303c-10.176-3.234-30.75-8.033-41.117-9.154
				c-8.533-0.912-21.54-4.469-31.044-7.074l-4.314-1.175c-3.064-0.817-8.032-1.963-11.609-2.727
				c-5.726-1.256-13.385-2.692-21.957-2.692c-2.136,0-4.268,0.094-6.32,0.27c-1.796,0.154-3.605,0.235-5.387,0.235
				c-5.03,0-9.038-0.634-11.543-1.167c5.934-2.08,15.336-3.125,27.96-3.125c23.78,0,55.103,3.651,79.726,6.83
				c11.119,1.438,20.76,3.187,28.642,5.197c1.983,0.5,4.703,0.567,6.251,0.136l2.18-0.595c3.813-1.039,7.507-2.348,11.268-3.697
				l0.275-0.109c2.24-0.789,4.173-1.478,5.609-1.876c1.849-0.526,4.105-0.938,7.101-1.275c3.101-0.338,8.236-0.533,11.408-0.533
				c3.179,0,8.315,0.194,11.401,0.533c2.971,0.344,5.287,0.756,7.122,1.275c1.479,0.419,3.496,1.135,5.871,1.978
				c3.033,1.095,7.196,2.6,11.126,3.66l1.909,0.641c1.562,0.439,4.3,0.358,6.236-0.136c7.887-2.017,17.525-3.766,28.644-5.197
				c24.617-3.179,55.932-6.83,79.717-6.83c12.622,0,22.028,1.053,27.955,3.125C993.414-1057.713,989.41-1057.079,984.383-1057.079z
				 M819.16-979.074c0.41,0.771,0.142,1.73-0.596,2.154c-1.506,0.844-3.125,1.261-4.826,1.261c-2.772,0-4.879-1.133-5.108-1.256
				c-0.352-0.195-0.621-0.526-0.751-0.929c-0.12-0.405-0.073-0.843,0.13-1.209c0.413-0.748,1.404-1.033,2.146-0.635
				c0.021,0.014,1.571,0.843,3.592,0.843c1.163,0,2.256-0.282,3.238-0.836C817.681-980.08,818.713-979.816,819.16-979.074z"/>
		</g>
	</g>
</g>
<g id="Capa_3">
</g>
</svg>
