<?xml version="1.0" encoding="utf-8"?>
<!-- Generator: Adobe Illustrator 16.0.0, SVG Export Plug-In . SVG Version: 6.00 Build 0)  -->
<!DOCTYPE svg PUBLIC "-//W3C//DTD SVG 1.1//EN" "http://www.w3.org/Graphics/SVG/1.1/DTD/svg11.dtd">
<svg version="1.1" xmlns="http://www.w3.org/2000/svg" xmlns:xlink="http://www.w3.org/1999/xlink" x="0px" y="0px" width="400px"
	 height="400px" viewBox="101.83 -631.953 400 400" enable-background="new 101.83 -631.953 400 400" xml:space="preserve">
<g id="Layer_4">
</g>
<g id="Capa_2">
	<g>
		<path fill="#BFD2EC" d="M334.01-446.917c0,0,11.541-43.349,10.977-43.349S297.224-479.176,334.01-446.917z"/>
		<path fill="#BFD2EC" d="M267.046-446.917c0,0-11.542-43.349-10.978-43.349S303.831-479.176,267.046-446.917z"/>
		<path fill="#BFD2EC" d="M356.698-547.737l-14.389,9.902l-22.697-18.948C319.612-556.782,344.363-555.336,356.698-547.737z"/>
		<path fill="#BFD2EC" d="M246.189-547.737l14.389,9.902l22.697-18.948C283.275-556.782,258.524-555.336,246.189-547.737z"/>
		<path fill="#BFD2EC" d="M266.046-445.724l67.132,0.702c0,0,10.721,39.376,3.807,40.979c-6.913,1.603-39.979,8.917-74.144,0
			C255.83-418.773,266.046-445.724,266.046-445.724z"/>
		<path fill="#BFD2EC" d="M277.632-600.647c0,15.949,10.494,28.878,23.439,28.878c12.953,0,23.446-12.929,23.446-28.878
			s-10.493-28.878-23.446-28.878C288.126-629.525,277.632-616.596,277.632-600.647z"/>
		<g>
			<path fill="#7AA7DC" d="M305.227-468.655c-0.985,0.553-2.077,0.835-3.235,0.835c-2.015,0-3.564-0.828-3.583-0.842
				c-0.745-0.398-1.734-0.113-2.146,0.634c-0.201,0.366-0.247,0.803-0.125,1.208c0.125,0.402,0.398,0.733,0.745,0.927
				c0.231,0.123,2.334,1.254,5.103,1.254c1.697,0,3.316-0.417,4.817-1.258c0.733-0.423,1.004-1.381,0.595-2.151
				C306.951-468.789,305.922-469.053,305.227-468.655z"/>
			<path fill="#7AA7DC" d="M301.83-569.323c14.146,0,25.648-14.043,25.648-31.314s-11.502-31.315-25.648-31.315
				c-14.144,0-25.648,14.044-25.648,31.315S287.686-569.323,301.83-569.323z M301.83-626.036c10.876,0,19.731,11.395,19.731,25.398
				c0,14.01-8.855,25.406-19.731,25.406c-10.878,0-19.731-11.403-19.731-25.406C282.098-614.647,290.952-626.036,301.83-626.036z"/>
			<path fill="#7AA7DC" d="M495.72-561.12c-6.597-2.372-16.204-3.518-29.406-3.518c-18.451,0-44.016,2.19-80.447,6.9
				c-11.292,1.456-21.1,3.241-29.152,5.29c-0.727,0.182-1.663,0.29-2.568,0.29c-0.61,0-1.024-0.053-1.16-0.088l-1.906-0.653
				c-3.698-0.991-7.425-2.332-10.903-3.578l-0.842-0.298c-2.082-0.733-3.874-1.374-5.322-1.785
				c-2.096-0.586-4.663-1.051-7.853-1.416c-3.262-0.364-20.997-0.993-24.325-0.993c-3.329,0-21.069,0.629-24.328,0.993
				c-3.189,0.365-5.757,0.83-7.853,1.416c-1.447,0.411-3.24,1.051-5.322,1.785l-0.842,0.298c-3.48,1.247-7.207,2.587-10.905,3.578
				l-1.906,0.653c-0.136,0.035-0.55,0.088-1.161,0.088c-0.904,0-1.841-0.108-2.567-0.29c-8.054-2.049-17.86-3.834-29.152-5.29
				c-36.434-4.71-62.001-6.9-80.452-6.9c-13.202,0-22.81,1.146-29.406,3.518c-2.424,0.875-3.812,2.594-3.701,4.576
				c0.102,1.589,1.313,3.523,4.381,4.184c2.701,0.593,7.082,1.301,12.55,1.301c1.92,0,3.872-0.095,5.806-0.256
				c1.901-0.161,3.867-0.25,5.856-0.25c8.184,0,15.511,1.375,20.992,2.574c3.574,0.775,8.468,1.907,11.376,2.682l4.44,1.22
				c9.59,2.623,22.718,6.206,31.559,7.149c9.839,1.058,18.082,10.158,27.949,13.296l0.257,0.054
				c3.233,0.479,13.905,2.608,15.543,9.974l4.54,7.443l3.956,14.199c1.741,6.776,11.578,36.786,11.273,46.208
				c-0.216,0.785-0.426,1.601-0.639,2.405c0.014,0.002,0.025,0.008,0.039,0.01c-1.437,5.173-4.584,19.288-3.777,40.858l-0.235,0.591
				c0.041,0.017,0.136,0.054,0.257,0.101c0.083,1.996,0.191,4.042,0.347,6.163c1.582,21.659,4.959,37.988,7.198,48.794
				c1.572,7.614,2.816,13.63,2.188,15.938c-5.546,20.338-1.332,40.706,1.744,55.576c0.852,4.117-0.019,8.177-0.939,12.472
				c-1.461,6.835-3.117,14.583,1.703,24.229c2.451,4.903,5.958,7.676,9.673,7.676c0.143,0,0.286-0.004,0.43-0.014
				c3.622-0.208,6.698-3.092,8.452-7.913c1.854-5.1,1.392-13.207,0.943-21.048c-0.343-6.023-0.698-12.254,0.264-15.131
				c2.197-6.597,7.018-33.501,2.243-57.271c-3.923-19.514-1.596-29.798,0.273-38.062c0.818-3.608,1.591-7.015,1.771-10.695
				c0.58-11.597,2.341-15.631,3.571-17.043c1.58,1.425,3.805,5.464,4.386,17.043c0.18,3.68,0.952,7.087,1.771,10.695
				c1.868,8.264,4.195,18.548,0.272,38.062c-4.773,23.771,0.047,50.675,2.244,57.271c0.962,2.877,0.605,9.108,0.264,15.131
				c-0.449,7.841-0.912,15.948,0.943,21.048c1.753,4.82,4.829,7.705,8.451,7.913c0.144,0.009,0.287,0.014,0.431,0.014
				c3.715,0,7.221-2.773,9.673-7.676c4.82-9.645,3.162-17.394,1.702-24.229c-0.921-4.295-1.79-8.354-0.938-12.472
				c3.076-14.87,7.29-35.238,1.743-55.576c-0.629-2.308,0.613-8.324,2.188-15.938c2.234-10.806,5.613-27.136,7.193-48.794
				c1.763-24.172-1.457-40.266-3.144-46.719c0.007,0.001,0.017-0.001,0.025,0c-0.231-0.877-0.46-1.764-0.696-2.62
				c0-0.023,0-0.051,0-0.074c0.067-0.304,0.074-0.618,0.012-0.939c0.477-10.435,11.794-39.434,13.478-45.984l3.955-14.199
				l4.541-7.443c1.637-7.366,12.31-9.495,15.543-9.974l0.257-0.054c9.867-3.139,18.107-12.238,27.947-13.296
				c8.84-0.943,21.969-4.526,31.558-7.149l4.438-1.22c2.908-0.775,7.802-1.907,11.376-2.682c5.481-1.199,12.809-2.574,20.992-2.574
				c1.989,0,3.955,0.089,5.856,0.25c1.934,0.162,3.886,0.256,5.806,0.256c5.468,0,9.849-0.708,12.55-1.301
				c3.067-0.661,4.279-2.595,4.381-4.184C499.533-558.527,498.144-560.245,495.72-561.12z M291.924-382.323
				c-0.167,3.271-0.86,6.335-1.661,9.886c-1.971,8.704-4.422,19.535-0.301,40.042c4.589,22.838,0.005,48.549-2.095,54.838
				c-1.245,3.74-0.897,9.839-0.495,16.901c0.402,7.02,0.855,14.977-0.666,19.158c-1.078,2.958-2.633,4.709-4.274,4.804
				c-1.837,0.064-3.983-1.832-5.593-5.054c-4.08-8.16-2.734-14.454-1.305-21.118c0.98-4.586,1.993-9.328,0.943-14.421
				c-2.983-14.403-7.063-34.127-1.813-53.374c0.93-3.402-0.217-8.951-2.123-18.143c-2.206-10.684-5.547-26.83-7.105-48.179
				c-0.104-1.418-0.171-2.78-0.24-4.143c5.1,1.607,13.265,3.714,21.071,3.714c2.838,0,5.608-0.321,8.183-1.006
				C293.371-395.523,292.34-390.661,291.924-382.323z M335.823-396.985c-1.559,21.351-4.898,37.498-7.104,48.181
				c-1.906,9.192-3.054,14.741-2.124,18.143c5.248,19.246,1.171,38.971-1.813,53.374c-1.05,5.093-0.037,9.835,0.944,14.421
				c1.429,6.664,2.775,12.958-1.305,21.118c-1.614,3.222-3.808,5.125-5.593,5.054c-1.643-0.095-3.196-1.846-4.274-4.804
				c-1.522-4.182-1.068-12.138-0.666-19.158c0.402-7.062,0.749-13.161-0.495-16.901c-2.101-6.289-6.685-32-2.096-54.838
				c4.122-20.507,1.67-31.338-0.301-40.042c-0.8-3.55-1.494-6.615-1.66-9.886c-0.419-8.364-1.658-13.231-2.979-16.121
				c2.604,0.707,5.412,1.034,8.294,1.034c7.989,0,16.351-2.208,21.421-3.827C336.002-399.84,335.929-398.441,335.823-396.985z
				 M336.254-406.293c-6.416,2.181-22.438,6.812-31.576,2.233l-0.983,1.965c-0.754-0.544-1.298-0.62-1.362-0.703
				c-0.553-0.718-1.432-0.998-2.267-0.85c-0.849-0.163-1.758,0.119-2.322,0.85c-0.049,0.062-0.31,0.124-0.688,0.369l-0.816-1.631
				c-8.967,4.481-24.601,0.097-31.231-2.12c-0.428-18.841,2.253-31.48,3.562-36.424c0.04,0.025,0.088,0.039,0.128,0.066
				c0.071-0.264,0.113-0.419,0.113-0.419c0.117-0.325,0.188-0.769,0.22-1.3c0.009-0.028,0.014-0.045,0.022-0.072
				c5.88,0.732,23.192,2.695,39.903,2.695c8.525,0,16.885-0.514,23.461-1.964c0.009,0.029,0.016,0.056,0.022,0.084
				c0.012,0.292,0.033,0.558,0.069,0.79c0.044-0.016,0.091-0.029,0.137-0.045C333.933-437.946,336.673-425.271,336.254-406.293z
				 M482.412-555.683c-1.776,0-3.576-0.081-5.375-0.235c-2.059-0.176-4.173-0.269-6.319-0.269c-8.549,0-16.195,1.441-21.903,2.688
				c-3.611,0.775-8.598,1.92-11.611,2.722l-4.272,1.18c-9.482,2.601-22.468,6.152-31.007,7.062
				c-10.46,1.125-18.624,10.244-28.429,13.397c-1.881,0.243-11.045,1.693-16.18,7.494c-0.106-0.237-7.89,13.542-7.89,13.542
				c-0.254,1.088-3.719,13.997-3.719,13.997c-1.739,6.77-10.459,32.763-12.726,45.49c-18.643,4.875-57.322,0.341-64.266-0.533
				c-1.673-12.473-9.012-38.158-10.758-44.957c0,0-3.465-12.909-3.72-13.997c0,0-7.783-13.779-7.89-13.542
				c-5.135-5.801-14.298-7.251-16.179-7.494c-9.805-3.153-17.972-12.271-28.431-13.397c-8.54-0.91-21.524-4.461-31.008-7.062
				l-4.274-1.18c-3.014-0.802-8-1.947-11.611-2.722c-5.708-1.247-13.354-2.688-21.903-2.688c-2.146,0-4.261,0.093-6.319,0.269
				c-1.799,0.154-3.599,0.235-5.375,0.235c-5.02,0-9.016-0.632-11.519-1.166c5.916-2.068,15.307-3.119,27.908-3.119
				c23.747,0,55.009,3.645,79.587,6.818c11.1,1.429,20.722,3.175,28.593,5.188c1.936,0.492,4.672,0.573,6.227,0.135l1.908-0.64
				c3.923-1.058,8.079-2.561,11.108-3.653c2.371-0.841,4.386-1.556,5.861-1.974c1.832-0.518,4.145-0.93,7.11-1.273
				c3.081-0.337,20.629-0.967,23.803-0.967c3.173,0,20.72,0.629,23.798,0.967c2.968,0.344,5.278,0.755,7.112,1.273
				c1.476,0.418,3.49,1.133,5.861,1.974c3.027,1.093,7.184,2.595,11.106,3.653l1.908,0.64c1.555,0.438,4.291,0.357,6.227-0.135
				c7.871-2.014,17.493-3.76,28.593-5.188c24.575-3.173,55.835-6.818,79.582-6.818c12.602,0,21.992,1.051,27.908,3.119
				C491.427-556.315,487.431-555.683,482.412-555.683z"/>
		</g>
		<g>
			<path fill="#7AA7DC" d="M300.569-401.377c-4.459,0-8.153-2.072-10.057-3.833c-0.96-0.889-1.018-2.387-0.127-3.347
				c0.884-0.96,2.382-1.017,3.337-0.137c0.667,0.603,6.597,5.591,13.805-0.076c1.026-0.813,2.519-0.629,3.325,0.396
				c0.808,1.028,0.632,2.518-0.397,3.326C307.022-402.346,303.618-401.377,300.569-401.377z"/>
		</g>
		<path fill="#BFD2EC" d="M294.264-526.448c-7.839,0.042-14.111,0.216-19.136,0.474c-0.372,0.013-0.715,0.021-1.092,0.034
			l0.017,0.021c-21.117,1.174-18.906,3.853-18.906,3.853s-0.666,24.046,29.171,22.792c8.015-0.336,13.601-0.591,17.512-0.783
			c3.911,0.192,9.497,0.446,17.512,0.783c29.837,1.255,29.171-22.792,29.171-22.792S352.884-527.4,294.264-526.448z"/>
	</g>
	<g id="Capa_1">
	</g>
</g>
<g id="Capa_3">
</g>
</svg>
