<?xml version="1.0" encoding="utf-8"?>
<!-- Generator: Adobe Illustrator 16.0.0, SVG Export Plug-In . SVG Version: 6.00 Build 0)  -->
<!DOCTYPE svg PUBLIC "-//W3C//DTD SVG 1.1//EN" "http://www.w3.org/Graphics/SVG/1.1/DTD/svg11.dtd">
<svg version="1.1" xmlns="http://www.w3.org/2000/svg" xmlns:xlink="http://www.w3.org/1999/xlink" x="0px" y="0px" width="400px"
	 height="400px" viewBox="-424.488 -1133.187 400 400" enable-background="new -424.488 -1133.187 400 400" xml:space="preserve">
<g id="Layer_4">
</g>
<g id="Capa_2">
	<g>
		<path fill="#FFABDF" d="M-189.889-1053.707c-5.101,0-37.487-7.709-37.487-7.709l-0.028,2.224
			c-8.053,1.883-30.425,7.026-34.591,7.026c-5.098,0-9.612,24.091,0.981,26.019c10.591,1.927,8.434,53.191,8.434,53.191l29.228,4.24
			l-0.022-1.876l24.56-1.592c0,0-0.832-51.843,7.945-55.504C-180.932-1031.833-184.791-1053.707-189.889-1053.707z"/>
		<path fill="#FFABDF" d="M-268.004-909.296c0,0,33.237,6.625,36.632,4.133c3.396-2.493-3.688,48.35-2.564,55.243
			c1.049,6.44,0.581,61.398-1.044,73.146c0.259,10.983,3.392,41.129-6.467,40.197c-7.776-2.154-0.621-22.291-4.208-41.827
			c-3.568-19.44-6.349-23.606-6.349-55.94C-258.35-866.68-268.004-909.296-268.004-909.296z"/>
		<path fill="#FFABDF" d="M-183.715-909.594c0,0-33.237,6.625-36.632,4.133c-3.396-2.493,3.688,48.349,2.564,55.243
			c-1.049,6.44-0.581,61.398,1.044,73.146c-0.259,10.983-3.392,41.129,6.467,40.197c7.776-2.154,0.621-22.291,4.208-41.828
			c3.568-19.44,6.349-23.605,6.349-55.94C-193.369-866.977-183.715-909.594-183.715-909.594z"/>
		<g>
			<g>
				<g>
					<path fill="#FF36A9" d="M-224.505-1070.451c14.166,0,25.689-14.069,25.689-31.368c0-17.302-11.523-31.368-25.689-31.368
						c-14.169,0-25.692,14.065-25.692,31.368C-250.198-1084.52-238.674-1070.451-224.505-1070.451z M-224.505-1127.262
						c10.893,0,19.764,11.415,19.764,25.443c0,14.034-8.871,25.449-19.764,25.449c-10.894,0-19.765-11.425-19.765-25.449
						C-244.27-1115.853-235.399-1127.262-224.505-1127.262z"/>
				</g>
				<g>
					<path fill="#FF36A9" d="M-42.523-1062.529c-6.606-2.374-16.235-3.522-29.458-3.522c-18.48,0-44.089,2.195-80.581,6.913
						c-11.312,1.456-21.136,3.248-29.203,5.299c-0.729,0.18-1.664,0.288-2.57,0.288c-0.614,0-1.027-0.052-1.163-0.087l-1.908-0.653
						c-3.708-0.993-7.441-2.336-10.921-3.586l-0.847-0.296c-2.085-0.734-3.882-1.378-5.33-1.789c-2.1-0.586-4.673-1.052-7.866-1.418
						c-3.265-0.365-8.583-0.561-11.921-0.561c-3.322,0-8.625,0.195-11.926,0.561c-3.18,0.366-5.751,0.824-7.844,1.418
						c-1.45,0.404-3.247,1.046-5.332,1.789l-0.979,0.353c-3.315,1.186-7.081,2.531-10.808,3.539l-2.194,0.605
						c-0.709,0.201-2.713,0.125-3.848-0.163c-8.073-2.06-17.896-3.843-29.207-5.299c-36.49-4.718-62.103-6.913-80.589-6.913
						c-13.225,0-22.855,1.154-29.467,3.522c-2.422,0.877-3.806,2.601-3.668,4.614c0.106,1.584,1.315,3.522,4.387,4.182
						c2.694,0.598,7.073,1.297,12.602,1.297c1.911,0,3.854-0.088,5.783-0.251c1.906-0.163,3.883-0.248,5.873-0.248
						c8.187,0,15.533,1.377,21.019,2.578c1.771,0.391,7.832,1.735,11.382,2.679l4.505,1.242
						c9.592,2.619,22.227,10.841,31.062,11.779c9.768,1.052,30.937,1.203,41.148,4.416c1.142,0.189,11.151,2.071,12.906,9.93
						l1.411,6.866l3.72,14.496c1.93,7.509,2.11,17.462,0.418,22.196l-1.018,2.84c-0.874,2.114-1.906,4.955-3.167,8.653l-2.769,7.346
						c-1.741,4.597-4.266,13.48-5.995,21.086l-0.553,1.967l-0.177,1.116h0.062l-0.365,1.818c-1.413,6.877-1.996,17.45-1.52,25.586
						c0.09,1.539,0.218,2.994,0.386,4.319l0.181,1.46c1.049,8.178,3.984,21.247,6.542,29.151l4.752,14.576l2.092,8.68
						c1.116,4.607,2.021,11.986,2.021,16.454l0.021,8.113l-0.751,8.49c-0.426,5.03,0.918,14.497,3.066,21.568
						c1.135,3.752,2.28,8.262,3.078,12.061c0.652,3.18,0.943,8.233,0.62,11.195c-0.067,0.567-0.135,1.148-0.216,1.715
						c-0.121,0.87-0.303,1.906-0.493,3.008c-0.527,3.045-1.127,6.486-0.99,9.113c0.246,4.989,1.395,10.898,3.075,15.817
						c2.216,6.467,5.163,7.434,6.716,7.434h0.121c1.79-0.042,4.254-1.186,5.826-6.388c2.18-7.216,2.836-16.407,1.485-20.931
						c-1.174-3.905-2.118-10.07-2.118-13.743c0-3.761,1.295-12.642,2.901-19.815c1.674-7.522,2.524-18.142,1.888-23.684l-1.14-9.787
						l-1.482-7.393c-0.776-3.924-1.088-11.939-0.688-17.862c0.284-4.217,1.046-10.703,1.935-16.524
						c0.167-1.079,0.393-2.394,0.637-3.793l0.114-0.665c0.401-2.325,0.913-5.207,1.178-7.258c0.796-6.188,1.312-13.432,1.312-18.472
						c0-4.886,0.985-8.536,1.642-10.061c0.646,1.539,1.599,5.193,1.599,10.061c0,4.998,0.521,12.247,1.33,18.472
						c0.251,1.972,0.711,4.645,1.169,7.234l0.237,1.428c0.184,1.111,0.37,2.157,0.505,3.054c0.899,5.798,1.659,12.284,1.938,16.519
						c0.402,5.96,0.086,13.976-0.702,17.863l-1.516,7.574l-1.106,9.601c-0.64,5.523,0.209,16.156,1.888,23.688
						c1.597,7.178,2.905,16.072,2.905,19.811c0,3.678-0.948,9.842-2.12,13.743c-1.348,4.524-0.701,13.711,1.479,20.931
						c1.572,5.207,4.052,6.346,5.921,6.388c1.925,0,4.652-1.283,6.749-7.425c1.688-4.905,2.836-10.824,3.082-15.822
						c0.126-2.622-0.474-6.062-0.999-9.108c-0.191-1.093-0.363-2.134-0.488-3.003c-0.086-0.627-0.172-1.269-0.23-1.911
						c-0.318-2.864-0.025-7.792,0.644-11.01c0.796-3.803,1.941-8.308,3.078-12.061c2.106-6.946,3.48-16.616,3.057-21.568
						l-0.736-8.29v-8.318c0-4.435,0.911-11.818,2.031-16.454l2.039-8.508l4.801-14.752c2.552-7.88,5.477-20.954,6.541-29.155
						l0.177-1.469c1.062-8.262,0.565-21.67-1.125-29.896l-0.313-1.525c-0.249-1.223-0.533-2.52-0.854-3.887
						c-0.023-0.13-0.065-0.288-0.14-0.632c-1.741-7.453-4.089-15.654-5.719-19.944l-6.965-18.84
						c-1.696-4.725-1.506-14.68,0.424-22.194l3.74-14.608l1.383-6.729c1.644-7.378,12.335-9.51,15.573-9.99l0.256-0.056
						c9.882-3.143,30.94-3.16,40.795-4.218c8.856-0.946,21.468-9.274,31.076-11.898l4.444-1.223
						c2.913-0.775,7.815-1.911,11.396-2.687c5.491-1.199,12.832-2.578,21.028-2.578c1.993,0,3.962,0.088,5.868,0.248
						c1.934,0.164,3.892,0.26,5.812,0.26c5.477,0,9.863-0.711,12.571-1.305c3.073-0.662,4.289-2.598,4.387-4.191
						C-38.708-1059.928-40.093-1061.652-42.523-1062.529z M-190.268-940.063c0.923,1.925,1.376,3.906,1.427,5.868
						c0.131,0.576,0.261,1.144,0.375,1.688l0.309,1.525c1.595,7.761,2.074,20.486,1.061,28.371l-0.182,1.469
						c-1.019,7.992-3.868,20.68-6.347,28.287l-4.84,14.938l-2.092,8.68c-1.195,4.919-2.152,12.795-2.152,17.546l0.014,8.495
						l0.728,8.508c0.402,4.454-0.895,13.349-2.866,19.815c-1.184,3.915-2.369,8.583-3.173,12.474
						c-0.658,3.147-1.118,8.806-0.709,12.446c0.067,0.674,0.148,1.357,0.241,2.041c0.128,0.935,0.316,2.022,0.549,3.306
						c0.465,2.762,0.995,5.891,0.902,7.959c-0.21,4.491-1.295,10.061-2.827,14.534c-1.041,3.036-1.999,3.961-2.344,4.212
						c-0.248-0.232-0.864-0.958-1.489-3.027c-1.857-6.156-2.546-14.673-1.472-18.234c1.265-4.292,2.306-11.061,2.306-15.083
						c0-4.008-1.348-13.348-3.008-20.824c-1.581-7.113-2.399-17.035-1.818-22.135l1.096-9.415l1.464-7.388
						c0.852-4.236,1.202-12.8,0.783-19.095c-0.297-4.398-1.073-11.033-1.984-16.896c-0.168-1.093-0.4-2.399-0.628-3.794
						l-0.145-0.795c-0.428-2.511-0.888-5.128-1.13-7.025c-0.778-6.104-1.292-13.116-1.292-17.881c0-3.092-0.692-11.935-3.72-14.278
						c0.003-0.019,0.01-0.032,0.01-0.046c-0.198-0.056-0.394-0.088-0.596-0.158c-1.069-0.404-4.709,0.144-4.658,0.354
						c-2.883,2.566-3.543,11.14-3.543,14.111c0,4.816-0.5,11.837-1.283,17.872c-0.232,1.799-0.655,4.226-1.053,6.565l-0.086,0.498
						c-0.293,1.669-0.567,3.259-0.763,4.556c-0.906,5.812-1.681,12.446-1.985,16.9c-0.418,6.281-0.074,14.836,0.776,19.09
						l1.45,7.202l1.107,9.596c0.588,5.101-0.229,15.031-1.813,22.14c-1.655,7.453-3.006,16.798-3.006,20.819
						c0,4.05,1.029,10.824,2.309,15.087c1.078,3.589,0.397,12.116-1.465,18.226c-0.642,2.073-1.241,2.803-1.499,3.031
						c-0.345-0.242-1.295-1.158-2.342-4.212c-1.534-4.496-2.619-10.061-2.836-14.529c-0.095-2.148,0.498-5.57,0.944-8.085
						c0.197-1.162,0.393-2.246,0.507-3.166c0.088-0.586,0.155-1.186,0.223-1.767l0.033-0.265c0.353-3.264,0.034-8.852-0.707-12.46
						c-0.783-3.785-1.972-8.443-3.188-12.474c-1.964-6.5-3.247-15.389-2.866-19.82l0.742-8.694v-8.313
						c0-4.751-0.965-12.623-2.146-17.542l-2.148-8.843l-4.786-14.775c-2.477-7.602-5.326-20.299-6.354-28.296l-0.187-1.455
						c-0.999-7.909-0.521-20.638,1.074-28.376l0.323-1.534c0.086-0.451,0.188-0.935,0.295-1.414c0.154,0,1.224-4.677,1.224-4.677
						c1.804-6.169,4.953-16.688,7.773-25.045l2.466-6.758c4.482,1.005,16.875,3.504,29.638,3.504c8.434,0,15.656-1.066,21.488-3.187
						C-198.637-965.722-192.76-948.671-190.268-940.063z M-55.855-1057.082c-1.78,0-3.587-0.078-5.386-0.232
						c-2.06-0.178-4.18-0.271-6.328-0.271c-8.563,0-16.224,1.445-21.939,2.694c-3.62,0.775-8.613,1.922-11.633,2.727l-4.277,1.18
						c-9.501,2.606-21.971,10.902-30.522,11.814c-10.478,1.127-31.457,1.163-41.281,4.319c-1.639,0.21-8.769,1.336-13.99,5.438
						c-0.27,0.693-0.615,1.387-1.144,2.074c-2.959,3.837-4.003,10.629-5.812,15.158c-0.637,1.597-1.302,3.187-1.948,4.781
						c0.109-0.015,0.219-0.027,0.326-0.052l-1.881,7.352c-2.16,8.408-2.285,19.352-0.291,24.906l0.251,0.702
						c-5.347,1.946-12.041,2.93-19.936,2.93c-11.926,0-23.584-2.286-28.052-3.273l0.128-0.359
						c1.892-5.225,1.896-15.164,0.106-23.302c-1.655-3.745-3.077-7.59-4.067-11.508c-1.037-4.101-1.869-8.234-2.148-12.463
						c-0.039-0.586-0.328-1.282-0.697-2.01l-0.012-0.018c-0.352-0.597-0.7-1.197-1.049-1.797l0.057-0.023
						c-0.24-0.437-0.451-0.86-0.635-1.271c-4.573-5.575-12.193-6.996-13.411-7.177c-10.173-3.232-31.246-3.402-41.611-4.523
						c-8.536-0.912-21.043-9.1-30.548-11.705l-4.312-1.173c-3.064-0.816-8.034-1.963-11.609-2.727
						c-5.724-1.255-13.386-2.694-21.959-2.694c-2.132,0-4.268,0.093-6.318,0.271c-1.794,0.154-3.603,0.232-5.386,0.232
						c-5.028,0-9.038-0.631-11.542-1.165c5.933-2.08,15.336-3.126,27.959-3.126c23.78,0,55.101,3.653,79.724,6.831
						c11.118,1.436,20.759,3.186,28.64,5.196c1.985,0.501,4.707,0.568,6.253,0.137l2.181-0.594c3.812-1.04,7.504-2.348,11.266-3.7
						l0.276-0.107c2.241-0.79,4.17-1.477,5.609-1.879c1.848-0.524,4.103-0.935,7.1-1.272c3.099-0.338,8.236-0.533,11.409-0.533
						c3.18,0,8.315,0.194,11.4,0.533c2.971,0.344,5.286,0.754,7.12,1.272c1.48,0.42,3.498,1.137,5.874,1.981
						c3.031,1.092,7.195,2.595,11.124,3.655l1.913,0.644c1.558,0.437,4.298,0.358,6.234-0.137
						c7.886-2.016,17.523-3.766,28.645-5.196c24.613-3.178,55.927-6.831,79.717-6.831c12.618,0,22.026,1.052,27.951,3.126
						C-46.823-1057.714-50.831-1057.082-55.855-1057.082z"/>
				</g>
			</g>
			<g>
				<path fill="#FF36A9" d="M-239.332-902.184c-10.928,0-24.344-5.291-26.345-6.104c-1.219-0.497-1.802-1.883-1.307-3.101
					c0.493-1.213,1.883-1.804,3.101-1.311c6.805,2.771,25.874,8.871,32.267,3.915c1.037-0.805,2.534-0.619,3.341,0.423
					c0.804,1.042,0.613,2.534-0.426,3.343C-231.372-902.951-235.173-902.184-239.332-902.184z"/>
			</g>
			<g>
				<path fill="#FF36A9" d="M-211.771-901.882c-4.201,0-8.034-0.767-10.73-2.831c-1.044-0.795-1.244-2.292-0.444-3.333
					c0.797-1.046,2.297-1.242,3.336-0.447c5.765,4.413,23.128-0.051,32.712-3.91c1.212-0.484,2.604,0.093,3.097,1.32
					c0.49,1.218-0.1,2.604-1.32,3.096C-187.146-907.173-200.722-901.882-211.771-901.882z"/>
			</g>
			<g>
				<path fill="#FF36A9" d="M-223.75-1010.056c-16.554,0-31.294-3.494-32.261-3.728c-1.276-0.309-2.062-1.596-1.753-2.874
					c0.309-1.278,1.599-2.061,2.873-1.755c0.36,0.089,36.378,8.613,57.979-1.048c1.208-0.541,2.61,0.002,3.145,1.201
					c0.537,1.199-0.002,2.608-1.201,3.144C-203.546-1011.278-213.965-1010.056-223.75-1010.056z"/>
			</g>
			<g>
				<path fill="#FF36A9" d="M-223.866-999.345c-15.601,0-29.48-3.501-30.393-3.736c-1.273-0.328-2.038-1.625-1.713-2.897
					c0.328-1.274,1.644-2.034,2.898-1.712c0.34,0.086,34.105,8.59,54.325-1.035c1.19-0.567,2.605-0.059,3.173,1.126
					c0.565,1.187,0.061,2.607-1.127,3.172C-204.802-1000.572-214.635-999.345-223.866-999.345z"/>
			</g>
		</g>
	</g>
	<g id="Capa_1">
	</g>
</g>
<g id="Capa_3">
</g>
</svg>
