<?xml version="1.0" encoding="utf-8"?>
<!-- Generator: Adobe Illustrator 17.1.0, SVG Export Plug-In . SVG Version: 6.00 Build 0)  -->
<!DOCTYPE svg PUBLIC "-//W3C//DTD SVG 1.1//EN" "http://www.w3.org/Graphics/SVG/1.1/DTD/svg11.dtd">
<svg version="1.1" id="Capa_1" xmlns="http://www.w3.org/2000/svg" xmlns:xlink="http://www.w3.org/1999/xlink" x="0px" y="0px"
	 width="170px" height="43px" viewBox="0 0 170 43" enable-background="new 0 0 170 43" xml:space="preserve">
<g>
	<g>
		<path fill="#00AAFF" d="M55.2,40.1v-7.3h1.5c1.1,0,1.9,0.1,2.4,0.3c0.7,0.2,1.3,0.7,1.7,1.3c0.4,0.6,0.6,1.3,0.6,2.2
			c0,0.7-0.2,1.4-0.5,1.9c-0.3,0.6-0.7,1-1.2,1.2c-0.5,0.3-1.2,0.4-2.1,0.4H55.2z M55.9,39.4h0.8c1,0,1.7-0.1,2.1-0.2
			c0.6-0.2,1-0.5,1.3-1c0.3-0.5,0.5-1,0.5-1.7c0-0.7-0.2-1.3-0.5-1.8c-0.3-0.5-0.8-0.8-1.4-1c-0.5-0.1-1.2-0.2-2.3-0.2h-0.5V39.4z"
			/>
		<path fill="#00AAFF" d="M67.2,38.3l0.6,0.3c-0.2,0.4-0.4,0.7-0.7,0.9c-0.3,0.2-0.5,0.4-0.9,0.5c-0.3,0.1-0.7,0.2-1.1,0.2
			c-0.9,0-1.6-0.3-2.1-0.9c-0.5-0.6-0.7-1.2-0.7-2c0-0.7,0.2-1.3,0.6-1.8c0.5-0.7,1.3-1,2.2-1c0.9,0,1.7,0.3,2.2,1
			c0.4,0.5,0.6,1.1,0.6,1.8h-4.9c0,0.6,0.2,1.1,0.6,1.5c0.4,0.4,0.9,0.6,1.4,0.6c0.3,0,0.5,0,0.8-0.1c0.3-0.1,0.5-0.2,0.7-0.4
			C66.8,38.9,67,38.7,67.2,38.3z M67.2,36.9c-0.1-0.4-0.2-0.7-0.4-0.9c-0.2-0.2-0.4-0.4-0.7-0.5c-0.3-0.1-0.6-0.2-0.9-0.2
			c-0.5,0-1,0.2-1.4,0.5c-0.3,0.2-0.5,0.6-0.6,1.1H67.2z"/>
		<path fill="#00AAFF" d="M69.3,34.7H70v1c0.3-0.4,0.6-0.7,1-0.8c0.4-0.2,0.8-0.3,1.2-0.3c0.8,0,1.4,0.3,2,0.8
			c0.5,0.5,0.8,1.2,0.8,2c0,0.8-0.3,1.5-0.8,2s-1.2,0.8-2,0.8c-0.4,0-0.8-0.1-1.2-0.3c-0.4-0.2-0.7-0.4-1-0.8v2.9h-0.7V34.7z
			 M72.1,35.3c-0.6,0-1.1,0.2-1.5,0.6c-0.4,0.4-0.6,0.9-0.6,1.6c0,0.4,0.1,0.8,0.3,1.1c0.2,0.3,0.4,0.6,0.8,0.8
			c0.3,0.2,0.7,0.3,1.1,0.3c0.4,0,0.7-0.1,1.1-0.3c0.3-0.2,0.6-0.5,0.8-0.8c0.2-0.3,0.3-0.7,0.3-1.1c0-0.4-0.1-0.7-0.3-1.1
			c-0.2-0.3-0.5-0.6-0.8-0.8C72.8,35.3,72.5,35.3,72.1,35.3z"/>
		<path fill="#00AAFF" d="M76.5,32.5c0.2,0,0.3,0.1,0.4,0.2c0.1,0.1,0.2,0.2,0.2,0.4c0,0.2-0.1,0.3-0.2,0.4
			c-0.1,0.1-0.2,0.2-0.4,0.2c-0.2,0-0.3-0.1-0.4-0.2c-0.1-0.1-0.2-0.2-0.2-0.4c0-0.2,0.1-0.3,0.2-0.4C76.2,32.6,76.3,32.5,76.5,32.5
			z M76.2,34.7h0.7v5.4h-0.7V34.7z"/>
		<path fill="#00AAFF" d="M78.2,32.6h0.7v7.5h-0.7V32.6z"/>
		<path fill="#00AAFF" d="M85.8,34.7v5.4h-0.7v-0.9c-0.3,0.4-0.6,0.6-1,0.8c-0.4,0.2-0.8,0.3-1.2,0.3c-0.8,0-1.4-0.3-2-0.8
			s-0.8-1.2-0.8-2c0-0.8,0.3-1.4,0.8-2c0.5-0.6,1.2-0.8,2-0.8c0.4,0,0.8,0.1,1.2,0.3c0.4,0.2,0.7,0.5,1,0.8v-1H85.8z M83,35.3
			c-0.4,0-0.7,0.1-1.1,0.3c-0.3,0.2-0.6,0.5-0.8,0.8c-0.2,0.3-0.3,0.7-0.3,1.1c0,0.4,0.1,0.7,0.3,1.1c0.2,0.3,0.5,0.6,0.8,0.8
			c0.3,0.2,0.7,0.3,1.1,0.3c0.4,0,0.7-0.1,1.1-0.3c0.3-0.2,0.6-0.4,0.8-0.8c0.2-0.3,0.3-0.7,0.3-1.1c0-0.6-0.2-1.1-0.6-1.6
			C84.1,35.5,83.6,35.3,83,35.3z"/>
		<path fill="#00AAFF" d="M92.6,35.8L92,36.2c-0.5-0.6-1.1-0.9-2-0.9c-0.7,0-1.2,0.2-1.6,0.6s-0.7,0.9-0.7,1.5
			c0,0.4,0.1,0.8,0.3,1.1c0.2,0.3,0.5,0.6,0.8,0.8c0.3,0.2,0.7,0.3,1.2,0.3c0.8,0,1.4-0.3,2-0.9l0.6,0.4c-0.3,0.4-0.6,0.7-1,0.9
			c-0.4,0.2-0.9,0.3-1.5,0.3c-0.9,0-1.6-0.3-2.1-0.8c-0.6-0.5-0.8-1.2-0.8-2c0-0.5,0.1-1,0.4-1.4c0.3-0.4,0.6-0.8,1.1-1
			c0.5-0.2,1-0.4,1.5-0.4c0.4,0,0.7,0.1,1,0.2c0.3,0.1,0.6,0.2,0.9,0.4C92.2,35.3,92.4,35.6,92.6,35.8z"/>
		<path fill="#00AAFF" d="M94.2,32.5c0.2,0,0.3,0.1,0.4,0.2c0.1,0.1,0.2,0.2,0.2,0.4c0,0.2-0.1,0.3-0.2,0.4
			c-0.1,0.1-0.2,0.2-0.4,0.2c-0.2,0-0.3-0.1-0.4-0.2c-0.1-0.1-0.2-0.2-0.2-0.4c0-0.2,0.1-0.3,0.2-0.4C93.9,32.6,94,32.5,94.2,32.5z
			 M93.8,34.7h0.7v5.4h-0.7V34.7z"/>
		<path fill="#00AAFF" d="M98.6,34.6c0.8,0,1.5,0.3,2.1,0.9c0.5,0.5,0.8,1.2,0.8,1.9c0,0.8-0.3,1.4-0.8,2c-0.5,0.6-1.2,0.8-2,0.8
			c-0.8,0-1.5-0.3-2-0.8c-0.5-0.6-0.8-1.2-0.8-2c0-0.7,0.2-1.4,0.7-1.9C97,34.9,97.7,34.6,98.6,34.6z M98.6,35.3
			c-0.6,0-1.1,0.2-1.5,0.6c-0.4,0.4-0.6,0.9-0.6,1.5c0,0.4,0.1,0.7,0.3,1.1c0.2,0.3,0.4,0.6,0.8,0.8c0.3,0.2,0.7,0.3,1.1,0.3
			s0.7-0.1,1.1-0.3c0.3-0.2,0.6-0.4,0.8-0.8c0.2-0.3,0.3-0.7,0.3-1.1c0-0.6-0.2-1.1-0.6-1.5C99.6,35.5,99.1,35.3,98.6,35.3z
			 M98.9,32.2h1.1l-1.5,1.5h-0.7L98.9,32.2z"/>
		<path fill="#00AAFF" d="M102.7,34.7h0.7v1c0.3-0.4,0.6-0.6,0.9-0.8c0.3-0.2,0.7-0.3,1.1-0.3c0.4,0,0.8,0.1,1.1,0.3
			c0.3,0.2,0.5,0.5,0.7,0.8c0.2,0.3,0.2,0.9,0.2,1.6v2.8h-0.7v-2.6c0-0.6,0-1-0.1-1.2c-0.1-0.4-0.2-0.6-0.5-0.8
			c-0.2-0.2-0.5-0.3-0.9-0.3c-0.4,0-0.8,0.1-1.1,0.4c-0.3,0.3-0.6,0.6-0.7,1c-0.1,0.3-0.1,0.8-0.1,1.5v2h-0.7V34.7z"/>
		<path fill="#00AAFF" d="M111.9,32.8h0.7v6.6h2.8v0.7h-3.6V32.8z"/>
		<path fill="#00AAFF" d="M121.9,34.7v5.4h-0.7v-0.9c-0.3,0.4-0.6,0.6-1,0.8c-0.4,0.2-0.8,0.3-1.2,0.3c-0.8,0-1.4-0.3-2-0.8
			c-0.5-0.6-0.8-1.2-0.8-2c0-0.8,0.3-1.4,0.8-2c0.5-0.6,1.2-0.8,2-0.8c0.4,0,0.8,0.1,1.2,0.3c0.4,0.2,0.7,0.5,1,0.8v-1H121.9z
			 M119.1,35.3c-0.4,0-0.7,0.1-1.1,0.3c-0.3,0.2-0.6,0.5-0.8,0.8c-0.2,0.3-0.3,0.7-0.3,1.1c0,0.4,0.1,0.7,0.3,1.1
			c0.2,0.3,0.5,0.6,0.8,0.8c0.3,0.2,0.7,0.3,1.1,0.3c0.4,0,0.7-0.1,1.1-0.3c0.3-0.2,0.6-0.4,0.8-0.8c0.2-0.3,0.3-0.7,0.3-1.1
			c0-0.6-0.2-1.1-0.6-1.6C120.2,35.5,119.7,35.3,119.1,35.3z M119.5,32.2h1.1l-1.5,1.5h-0.7L119.5,32.2z"/>
		<path fill="#00AAFF" d="M126.2,35.3l-0.4,0.5c-0.4-0.4-0.7-0.5-1.1-0.5c-0.2,0-0.4,0.1-0.6,0.2c-0.2,0.1-0.2,0.3-0.2,0.5
			c0,0.2,0.1,0.3,0.2,0.5c0.1,0.2,0.4,0.4,0.8,0.6c0.5,0.3,0.9,0.5,1.1,0.8c0.2,0.2,0.3,0.5,0.3,0.8c0,0.4-0.2,0.8-0.5,1.1
			c-0.3,0.3-0.7,0.5-1.2,0.5c-0.3,0-0.6-0.1-0.9-0.2c-0.3-0.1-0.5-0.3-0.7-0.6l0.4-0.5c0.4,0.4,0.7,0.6,1.1,0.6
			c0.3,0,0.5-0.1,0.7-0.3c0.2-0.2,0.3-0.4,0.3-0.6c0-0.2-0.1-0.4-0.2-0.5c-0.1-0.2-0.4-0.3-0.9-0.6c-0.5-0.2-0.8-0.5-1-0.7
			c-0.2-0.2-0.3-0.5-0.3-0.8c0-0.4,0.1-0.7,0.4-1c0.3-0.3,0.6-0.4,1.1-0.4C125.2,34.6,125.7,34.8,126.2,35.3z"/>
		<path fill="#00AAFF" d="M132,38.3l0.6,0.3c-0.2,0.4-0.4,0.7-0.7,0.9c-0.3,0.2-0.5,0.4-0.9,0.5c-0.3,0.1-0.7,0.2-1.1,0.2
			c-0.9,0-1.6-0.3-2.1-0.9c-0.5-0.6-0.7-1.2-0.7-2c0-0.7,0.2-1.3,0.6-1.8c0.5-0.7,1.3-1,2.2-1c0.9,0,1.7,0.3,2.2,1
			c0.4,0.5,0.6,1.1,0.6,1.8h-4.9c0,0.6,0.2,1.1,0.6,1.5c0.4,0.4,0.9,0.6,1.4,0.6c0.3,0,0.5,0,0.8-0.1c0.3-0.1,0.5-0.2,0.7-0.4
			C131.6,38.9,131.8,38.7,132,38.3z M132,36.9c-0.1-0.4-0.2-0.7-0.4-0.9c-0.2-0.2-0.4-0.4-0.7-0.5c-0.3-0.1-0.6-0.2-0.9-0.2
			c-0.5,0-1,0.2-1.4,0.5c-0.3,0.2-0.5,0.6-0.6,1.1H132z"/>
		<path fill="#00AAFF" d="M133.8,34.7h0.7v0.8c0.2-0.3,0.4-0.5,0.7-0.7c0.2-0.2,0.5-0.2,0.7-0.2c0.2,0,0.4,0.1,0.6,0.2l-0.4,0.6
			c-0.1-0.1-0.3-0.1-0.4-0.1c-0.2,0-0.5,0.1-0.7,0.3c-0.2,0.2-0.4,0.5-0.5,0.9c-0.1,0.3-0.1,0.9-0.1,1.9v1.8h-0.7V34.7z"/>
		<path fill="#00AAFF" d="M140.1,40.1v-7.3h1.5c1.1,0,1.9,0.1,2.4,0.3c0.7,0.2,1.3,0.7,1.7,1.3c0.4,0.6,0.6,1.3,0.6,2.2
			c0,0.7-0.2,1.4-0.5,1.9c-0.3,0.6-0.7,1-1.2,1.2c-0.5,0.3-1.2,0.4-2.1,0.4H140.1z M140.8,39.4h0.8c1,0,1.7-0.1,2.1-0.2
			c0.6-0.2,1-0.5,1.3-1c0.3-0.5,0.5-1,0.5-1.7c0-0.7-0.2-1.3-0.5-1.8c-0.3-0.5-0.8-0.8-1.4-1c-0.5-0.1-1.2-0.2-2.3-0.2h-0.5V39.4z"
			/>
		<path fill="#00AAFF" d="M147.8,32.5c0.2,0,0.3,0.1,0.4,0.2c0.1,0.1,0.2,0.2,0.2,0.4c0,0.2-0.1,0.3-0.2,0.4
			c-0.1,0.1-0.2,0.2-0.4,0.2c-0.2,0-0.3-0.1-0.4-0.2c-0.1-0.1-0.2-0.2-0.2-0.4c0-0.2,0.1-0.3,0.2-0.4
			C147.5,32.6,147.6,32.5,147.8,32.5z M147.5,34.7h0.7v5.4h-0.7V34.7z"/>
		<path fill="#00AAFF" d="M152.2,34.6c0.8,0,1.5,0.3,2.1,0.9c0.5,0.5,0.8,1.2,0.8,1.9c0,0.8-0.3,1.4-0.8,2c-0.5,0.6-1.2,0.8-2,0.8
			c-0.8,0-1.5-0.3-2-0.8c-0.5-0.6-0.8-1.2-0.8-2c0-0.7,0.2-1.4,0.7-1.9C150.6,34.9,151.3,34.6,152.2,34.6z M152.2,35.3
			c-0.6,0-1.1,0.2-1.5,0.6c-0.4,0.4-0.6,0.9-0.6,1.5c0,0.4,0.1,0.7,0.3,1.1c0.2,0.3,0.4,0.6,0.8,0.8c0.3,0.2,0.7,0.3,1.1,0.3
			s0.7-0.1,1.1-0.3c0.3-0.2,0.6-0.4,0.8-0.8c0.2-0.3,0.3-0.7,0.3-1.1c0-0.6-0.2-1.1-0.6-1.5C153.2,35.5,152.7,35.3,152.2,35.3z"/>
		<path fill="#00AAFF" d="M161.7,32.6v7.5H161v-0.9c-0.3,0.4-0.6,0.6-1,0.8c-0.4,0.2-0.8,0.3-1.2,0.3c-0.8,0-1.4-0.3-2-0.8
			c-0.5-0.6-0.8-1.2-0.8-2c0-0.8,0.3-1.4,0.8-2c0.5-0.6,1.2-0.8,2-0.8c0.4,0,0.8,0.1,1.2,0.3c0.4,0.2,0.7,0.5,1,0.8v-3.1H161.7z
			 M158.9,35.3c-0.4,0-0.7,0.1-1.1,0.3c-0.3,0.2-0.6,0.5-0.8,0.8s-0.3,0.7-0.3,1.1c0,0.4,0.1,0.7,0.3,1.1c0.2,0.3,0.5,0.6,0.8,0.8
			c0.3,0.2,0.7,0.3,1.1,0.3c0.4,0,0.7-0.1,1.1-0.3c0.3-0.2,0.6-0.4,0.8-0.8c0.2-0.3,0.3-0.7,0.3-1.1c0-0.6-0.2-1.1-0.6-1.6
			C160,35.5,159.5,35.3,158.9,35.3z"/>
		<path fill="#00AAFF" d="M165.9,34.6c0.8,0,1.5,0.3,2.1,0.9c0.5,0.5,0.8,1.2,0.8,1.9c0,0.8-0.3,1.4-0.8,2c-0.5,0.6-1.2,0.8-2,0.8
			c-0.8,0-1.5-0.3-2-0.8c-0.5-0.6-0.8-1.2-0.8-2c0-0.7,0.2-1.4,0.7-1.9C164.3,34.9,165,34.6,165.9,34.6z M165.9,35.3
			c-0.6,0-1.1,0.2-1.5,0.6s-0.6,0.9-0.6,1.5c0,0.4,0.1,0.7,0.3,1.1c0.2,0.3,0.4,0.6,0.8,0.8c0.3,0.2,0.7,0.3,1.1,0.3
			s0.7-0.1,1.1-0.3c0.3-0.2,0.6-0.4,0.8-0.8c0.2-0.3,0.3-0.7,0.3-1.1c0-0.6-0.2-1.1-0.6-1.5C166.9,35.5,166.4,35.3,165.9,35.3z"/>
	</g>
	<g>
		<path fill="#FD00C4" d="M55.4,13.6h1.4v13.7h5.4v1.5h-6.8V13.6z"/>
		<path fill="#FD00C4" d="M74.7,17.6v11.2h-1.3v-1.9c-0.6,0.7-1.2,1.3-1.9,1.7c-0.7,0.4-1.5,0.6-2.3,0.6c-1.5,0-2.7-0.6-3.8-1.7
			c-1-1.2-1.6-2.5-1.6-4.2c0-1.6,0.5-3,1.6-4.1c1.1-1.1,2.3-1.7,3.8-1.7c0.9,0,1.6,0.2,2.3,0.6c0.7,0.4,1.3,1,1.8,1.8v-2.1H74.7z
			 M69.3,18.7c-0.7,0-1.4,0.2-2.1,0.6c-0.6,0.4-1.1,0.9-1.5,1.7c-0.4,0.7-0.6,1.5-0.6,2.3c0,0.8,0.2,1.5,0.6,2.3
			c0.4,0.7,0.9,1.3,1.5,1.7c0.6,0.4,1.3,0.6,2,0.6c0.7,0,1.4-0.2,2.1-0.6c0.7-0.4,1.2-0.9,1.5-1.6c0.4-0.7,0.5-1.4,0.5-2.3
			c0-1.3-0.4-2.4-1.2-3.2C71.5,19.1,70.5,18.7,69.3,18.7z M70.1,12.3h2.1l-2.8,3.2h-1.3L70.1,12.3z"/>
		<path fill="#FD00C4" d="M83,18.8l-0.9,1c-0.7-0.7-1.4-1.1-2.1-1.1c-0.4,0-0.8,0.2-1.1,0.5c-0.3,0.3-0.5,0.7-0.5,1.1
			c0,0.4,0.1,0.7,0.4,1c0.3,0.3,0.8,0.7,1.6,1.2c1,0.6,1.7,1.1,2,1.6c0.4,0.5,0.5,1.1,0.5,1.8c0,0.9-0.3,1.7-0.9,2.3
			c-0.6,0.6-1.4,1-2.3,1c-0.6,0-1.2-0.1-1.7-0.4c-0.5-0.3-1-0.7-1.4-1.2l0.8-1c0.7,0.8,1.4,1.2,2.2,1.2c0.5,0,1-0.2,1.4-0.6
			c0.4-0.4,0.6-0.8,0.6-1.3c0-0.4-0.1-0.8-0.4-1.1c-0.2-0.3-0.8-0.7-1.7-1.2c-0.9-0.5-1.6-1-1.9-1.5c-0.3-0.5-0.5-1.1-0.5-1.7
			c0-0.8,0.3-1.6,0.8-2.1c0.5-0.6,1.2-0.8,2.1-0.8C81,17.3,82,17.8,83,18.8z"/>
		<path fill="#FD00C4" d="M94.2,25.1l1.1,0.6c-0.4,0.8-0.8,1.4-1.3,1.9c-0.5,0.5-1,0.8-1.6,1.1c-0.6,0.3-1.3,0.4-2.1,0.4
			c-1.7,0-3-0.6-4-1.8c-1-1.2-1.4-2.6-1.4-4.1c0-1.4,0.4-2.7,1.2-3.8c1-1.4,2.4-2.1,4.1-2.1c1.8,0,3.2,0.7,4.3,2.2
			c0.8,1,1.1,2.3,1.2,3.8h-9.4c0,1.3,0.4,2.4,1.2,3.2c0.8,0.8,1.7,1.2,2.8,1.2c0.5,0,1.1-0.1,1.6-0.3s0.9-0.5,1.3-0.8
			C93.4,26.3,93.7,25.8,94.2,25.1z M94.2,22.1c-0.2-0.8-0.4-1.4-0.8-1.8c-0.3-0.5-0.8-0.8-1.4-1.1c-0.6-0.3-1.2-0.4-1.8-0.4
			c-1,0-1.9,0.4-2.6,1.1c-0.5,0.5-0.9,1.3-1.2,2.3H94.2z"/>
		<path fill="#FD00C4" d="M97.6,17.6H99v1.6c0.4-0.6,0.8-1.1,1.3-1.4c0.5-0.3,0.9-0.5,1.4-0.5c0.4,0,0.8,0.1,1.2,0.4l-0.7,1.2
			c-0.3-0.1-0.5-0.2-0.7-0.2c-0.5,0-0.9,0.2-1.3,0.6c-0.4,0.4-0.7,1-1,1.8C99.1,21.8,99,23.1,99,25v3.8h-1.4V17.6z"/>
		<path fill="#FD00C4" d="M115.5,13.6l6.6,15.1h-1.5l-2.2-5h-6.1l-2.2,5h-1.6l6.7-15.1H115.5z M115.3,16.9l-2.4,5.5h4.8L115.3,16.9z
			"/>
		<path fill="#FD00C4" d="M123.8,13.3h1.3v15.5h-1.3V13.3z"/>
		<path fill="#FD00C4" d="M138.1,19.9l-1.1,0.7c-0.9-1.3-2.2-2-3.8-2c-1.3,0-2.3,0.4-3.2,1.3c-0.8,0.9-1.3,1.9-1.3,3.2
			c0,0.8,0.2,1.6,0.6,2.3c0.4,0.7,0.9,1.3,1.6,1.7c0.7,0.4,1.4,0.6,2.3,0.6c1.5,0,2.8-0.7,3.8-2l1.1,0.8c-0.5,0.8-1.2,1.4-2,1.9
			c-0.8,0.4-1.8,0.7-2.9,0.7c-1.7,0-3-0.6-4.1-1.7c-1.1-1.1-1.6-2.5-1.6-4.1c0-1.1,0.3-2.1,0.8-3c0.5-0.9,1.2-1.7,2.1-2.2
			c0.9-0.5,1.9-0.8,3-0.8c0.7,0,1.4,0.1,2,0.3c0.6,0.2,1.2,0.5,1.6,0.9C137.4,18.9,137.8,19.4,138.1,19.9z"/>
		<path fill="#FD00C4" d="M151.1,17.6v11.2h-1.3v-1.9c-0.6,0.7-1.2,1.3-1.9,1.7c-0.7,0.4-1.5,0.6-2.3,0.6c-1.5,0-2.7-0.6-3.8-1.7
			c-1-1.2-1.6-2.5-1.6-4.2c0-1.6,0.5-3,1.6-4.1c1.1-1.1,2.3-1.7,3.8-1.7c0.9,0,1.6,0.2,2.3,0.6c0.7,0.4,1.3,1,1.8,1.8v-2.1H151.1z
			 M145.7,18.7c-0.7,0-1.4,0.2-2.1,0.6c-0.6,0.4-1.1,0.9-1.5,1.7c-0.4,0.7-0.6,1.5-0.6,2.3c0,0.8,0.2,1.5,0.6,2.3
			c0.4,0.7,0.9,1.3,1.5,1.7c0.6,0.4,1.3,0.6,2,0.6c0.7,0,1.4-0.2,2.1-0.6c0.7-0.4,1.2-0.9,1.5-1.6c0.4-0.7,0.5-1.4,0.5-2.3
			c0-1.3-0.4-2.4-1.2-3.2C147.9,19.1,146.9,18.7,145.7,18.7z"/>
		<path fill="#FD00C4" d="M153.9,13.3h1.3v15.5h-1.3V13.3z"/>
		<path fill="#FD00C4" d="M168.5,17.6v11.2h-1.3v-1.9c-0.6,0.7-1.2,1.3-1.9,1.7c-0.7,0.4-1.5,0.6-2.3,0.6c-1.5,0-2.7-0.6-3.8-1.7
			c-1-1.2-1.6-2.5-1.6-4.2c0-1.6,0.5-3,1.6-4.1c1.1-1.1,2.3-1.7,3.8-1.7c0.9,0,1.6,0.2,2.3,0.6c0.7,0.4,1.3,1,1.8,1.8v-2.1H168.5z
			 M163.1,18.7c-0.7,0-1.4,0.2-2.1,0.6c-0.6,0.4-1.1,0.9-1.5,1.7c-0.4,0.7-0.6,1.5-0.6,2.3c0,0.8,0.2,1.5,0.6,2.3
			c0.4,0.7,0.9,1.3,1.5,1.7c0.6,0.4,1.3,0.6,2,0.6c0.7,0,1.4-0.2,2.1-0.6c0.7-0.4,1.2-0.9,1.5-1.6c0.4-0.7,0.5-1.4,0.5-2.3
			c0-1.3-0.4-2.4-1.2-3.2C165.3,19.1,164.3,18.7,163.1,18.7z M163.9,12.3h2.1l-2.8,3.2h-1.3L163.9,12.3z"/>
	</g>
	<g>
		<linearGradient id="SVGID_1_" gradientUnits="userSpaceOnUse" x1="-14.9384" y1="3.1467" x2="44.3556" y2="33.7501">
			<stop  offset="0" style="stop-color:#28E0F2"/>
			<stop  offset="1" style="stop-color:#FDA8C4"/>
		</linearGradient>
		<path fill="url(#SVGID_1_)" d="M49.9,28.4c-1.6-1.2-3.4-2.1-5.3-2.6c-0.1,0-0.1,0-0.2-0.1c0.7-2.2,1-4.5,0.9-6.8
			c-0.1-1.4-0.3-2.7-0.6-4c-0.4-1.3-0.8-2.6-1.4-3.8l-0.4-0.9l-1,0.1c-1.3,0.1-2.7,0.3-4,0.7c-1.2,0.3-2.4,0.8-3.5,1.3
			c-0.4-1.1-0.9-2.3-1.5-3.3c-0.8-1.5-1.7-2.8-2.7-4.1c-1-1.2-2.1-2.3-3.3-3.3l-0.8-0.7l-0.8,0.7c-1.2,1-2.3,2.1-3.3,3.3
			c-1,1.2-1.9,2.6-2.7,4.1c-0.6,1.1-1.1,2.2-1.5,3.3c-1.1-0.6-2.3-1-3.5-1.3c-1.3-0.4-2.6-0.6-4-0.7l-1-0.1l-0.4,0.9
			c-0.6,1.2-1.1,2.5-1.4,3.8c-0.3,1.3-0.6,2.7-0.6,4c-0.1,2.3,0.2,4.6,0.9,6.8c-0.1,0-0.1,0-0.2,0.1c-1.9,0.5-3.7,1.4-5.3,2.6
			l-0.7,0.5l0.2,0.8C2,31.6,2.9,33.5,4.2,35c1.2,1.6,2.8,2.8,4.6,3.7c1.7,0.9,3.6,1.4,5.5,1.6c0.9,0.1,1.9,0.1,2.8,0
			c0.9-0.1,1.8-0.2,2.7-0.5c-0.9,0-1.8-0.1-2.7-0.2c-0.9-0.1-1.8-0.3-2.6-0.6c-1.7-0.5-3.3-1.2-4.7-2.1c-0.4-0.2-0.7-0.5-1-0.7
			c-0.3-0.3-0.7-0.5-1-0.8c-0.6-0.6-1.2-1.2-1.6-1.9c-0.8-1.1-1.4-2.3-1.8-3.6c1.1-0.8,2.3-1.4,3.6-1.8c0.8,1.5,1.8,3,2.9,4.2
			c0.8,0.9,1.6,1.7,2.5,2.5c0.9,0.8,1.8,1.4,2.8,2c0,0,0,0,0,0c0.7,0.5,1.4,0.9,2.1,1.3c-1.9-1.7-3.5-3.6-4.9-5.6
			c-1.3-2-2.4-4.2-3.1-6.5c-0.2-0.6-0.3-1.1-0.4-1.7c-0.1-0.6-0.2-1.2-0.3-1.7c-0.1-1.2-0.1-2.3,0-3.5c0.1-1.2,0.3-2.3,0.7-3.4
			c0.2-0.8,0.5-1.6,0.8-2.3c0.8,0.1,1.6,0.2,2.4,0.4c0.6,0.1,1.2,0.3,1.8,0.5c0,0.3-0.1,0.5-0.1,0.8c-0.4,3-0.3,6.1,0.3,9
			c0.3,1.4,0.6,2.7,1,4c0,0.2,0.1,0.3,0.1,0.5c0.3,1.6,0.7,3.2,1.2,4.8c0.5,1.5,1.1,3,1.8,4.4c-0.9-3.1-1.4-6.2-1.6-9.4
			c-0.2-3.2,0-6.3,0.6-9.3c0.1-0.7,0.3-1.5,0.5-2.2c0.2-0.7,0.4-1.4,0.7-2.1c0.5-1.4,1.1-2.7,1.8-3.9c0.7-1.2,1.5-2.4,2.4-3.4
			c0.6-0.8,1.3-1.5,2.1-2.1C26.7,6,27.3,6.7,28,7.5c0.9,1,1.7,2.2,2.4,3.4c0.7,1.2,1.3,2.5,1.8,3.9c0.3,0.7,0.5,1.4,0.7,2.1
			c0.2,0.7,0.4,1.5,0.5,2.2c0.6,3,0.8,6.1,0.6,9.3c-0.2,3.2-0.7,6.3-1.6,9.4c0.7-1.4,1.3-2.8,1.8-4.4c0.5-1.5,0.9-3.1,1.2-4.8
			c0-0.2,0.1-0.3,0.1-0.5c0.4-1.3,0.8-2.6,1-4c0.5-2.9,0.6-6,0.3-9c0-0.3-0.1-0.5-0.1-0.8c0.6-0.2,1.2-0.4,1.8-0.5
			c0.8-0.2,1.6-0.3,2.4-0.4c0.3,0.8,0.6,1.5,0.8,2.3c0.3,1.1,0.5,2.2,0.7,3.4c0.1,1.2,0.1,2.3,0,3.5c-0.1,0.6-0.1,1.2-0.3,1.7
			c-0.1,0.6-0.3,1.1-0.4,1.7c-0.7,2.3-1.7,4.5-3.1,6.5c-1.3,2-3,3.9-4.9,5.6c0.7-0.4,1.4-0.8,2.1-1.3c0,0,0,0,0,0
			c1-0.6,1.9-1.3,2.8-2c0.9-0.8,1.7-1.6,2.5-2.5c1.1-1.3,2.1-2.7,2.9-4.2c1.3,0.4,2.5,1,3.6,1.8c-0.4,1.3-1,2.5-1.8,3.6
			c-0.5,0.7-1,1.3-1.6,1.9c-0.3,0.3-0.6,0.6-1,0.8c-0.3,0.3-0.7,0.5-1,0.7c-1.4,0.9-3,1.6-4.7,2.1c-0.8,0.2-1.7,0.4-2.6,0.6
			c-0.9,0.1-1.8,0.2-2.7,0.2c0.9,0.3,1.8,0.4,2.7,0.5c0.9,0.1,1.9,0.1,2.8,0c1.9-0.2,3.7-0.7,5.5-1.6c1.7-0.9,3.3-2.1,4.6-3.7
			c1.2-1.5,2.1-3.4,2.6-5.3l0.2-0.8L49.9,28.4z"/>
		<linearGradient id="SVGID_2_" gradientUnits="userSpaceOnUse" x1="-16.5783" y1="6.3222" x2="42.7168" y2="36.9262">
			<stop  offset="0" style="stop-color:#28E0F2"/>
			<stop  offset="1" style="stop-color:#FDA8C4"/>
		</linearGradient>
		<path fill="url(#SVGID_2_)" d="M29.9,22.8c-0.7-1.7-1.7-3.1-2.9-4.4l-1-1l-1,1c-1.2,1.3-2.2,2.8-3,4.4c-0.7,1.6-1.1,3.4-1.2,5.2
			c-0.1,1.8,0.2,3.5,0.6,5.1c0.2,0.8,0.5,1.6,0.8,2.4c0.3,0.8,0.7,1.5,1.1,2.3c-0.1-0.8-0.2-1.6-0.3-2.5c-0.1-0.8-0.2-1.6-0.3-2.4
			c-0.1-1.6-0.1-3.2,0.1-4.7c0.1-0.4,0.1-0.8,0.2-1.1c0.1-0.4,0.2-0.7,0.3-1.1c0.2-0.7,0.5-1.4,0.9-2.1c0.5-0.9,1-1.8,1.6-2.6
			c0.6,0.8,1.2,1.7,1.6,2.6c0.3,0.7,0.6,1.4,0.9,2.1c0.1,0.4,0.2,0.7,0.3,1.1c0.1,0.4,0.2,0.7,0.2,1.1c0.2,1.5,0.3,3.1,0.1,4.7
			c-0.1,0.8-0.1,1.6-0.3,2.4c-0.1,0.8-0.2,1.6-0.4,2.5c0.4-0.7,0.7-1.5,1.1-2.3c0.3-0.8,0.6-1.6,0.8-2.4c0.5-1.6,0.7-3.4,0.6-5.1
			C31,26.3,30.6,24.5,29.9,22.8z"/>
	</g>
	
		<linearGradient id="SVGID_3_" gradientUnits="userSpaceOnUse" x1="-28.3412" y1="-24.6169" x2="-31.5368" y2="-21.5287" gradientTransform="matrix(0.6942 -0.7198 0.7198 0.6942 53.1013 1.548)">
		<stop  offset="0" style="stop-color:#28E0F2;stop-opacity:0.6"/>
		<stop  offset="0.2495" style="stop-color:#28DEF0;stop-opacity:0.6998"/>
		<stop  offset="0.3887" style="stop-color:#26D6E8;stop-opacity:0.7555"/>
		<stop  offset="0.5008" style="stop-color:#24CADA;stop-opacity:0.8003"/>
		<stop  offset="0.5985" style="stop-color:#21B7C6;stop-opacity:0.8394"/>
		<stop  offset="0.6867" style="stop-color:#1DA0AD;stop-opacity:0.8747"/>
		<stop  offset="0.7682" style="stop-color:#17838D;stop-opacity:0.9073"/>
		<stop  offset="0.8445" style="stop-color:#116068;stop-opacity:0.9378"/>
		<stop  offset="0.9167" style="stop-color:#0A383D;stop-opacity:0.9667"/>
		<stop  offset="0.9832" style="stop-color:#020C0D;stop-opacity:0.9933"/>
		<stop  offset="1" style="stop-color:#000000"/>
	</linearGradient>
	<circle fill="url(#SVGID_3_)" cx="15.7" cy="7.1" r="1.2"/>
	
		<linearGradient id="SVGID_4_" gradientUnits="userSpaceOnUse" x1="35.22" y1="9.9886" x2="35.256" y2="4.8284" gradientTransform="matrix(0.9999 -8.700000e-03 8.700000e-03 0.9999 0.6852 2.480000e-02)">
		<stop  offset="0" style="stop-color:#000000"/>
		<stop  offset="0" style="stop-color:#000000"/>
		<stop  offset="0" style="stop-color:#000000"/>
		<stop  offset="3.120995e-02" style="stop-color:#1A1114"/>
		<stop  offset="9.588444e-02" style="stop-color:#493038"/>
		<stop  offset="0.1662" style="stop-color:#744D5A"/>
		<stop  offset="0.2407" style="stop-color:#996676"/>
		<stop  offset="0.3203" style="stop-color:#B87A8F"/>
		<stop  offset="0.4066" style="stop-color:#D18BA2"/>
		<stop  offset="0.5023" style="stop-color:#E598B1"/>
		<stop  offset="0.6125" style="stop-color:#F3A1BC"/>
		<stop  offset="0.75" style="stop-color:#FBA6C2"/>
		<stop  offset="1" style="stop-color:#FDA8C4"/>
	</linearGradient>
	<circle fill="url(#SVGID_4_)" cx="36" cy="7.1" r="1.2"/>
	
		<linearGradient id="SVGID_5_" gradientUnits="userSpaceOnUse" x1="-48.7227" y1="-21.6694" x2="-51.9184" y2="-18.5812" gradientTransform="matrix(0.6942 -0.7198 0.7198 0.6942 53.1013 1.548)">
		<stop  offset="0" style="stop-color:#28E0F2;stop-opacity:0.6"/>
		<stop  offset="0.2495" style="stop-color:#28DEF0;stop-opacity:0.6998"/>
		<stop  offset="0.3887" style="stop-color:#26D6E8;stop-opacity:0.7555"/>
		<stop  offset="0.5008" style="stop-color:#24CADA;stop-opacity:0.8003"/>
		<stop  offset="0.5985" style="stop-color:#21B7C6;stop-opacity:0.8394"/>
		<stop  offset="0.6867" style="stop-color:#1DA0AD;stop-opacity:0.8747"/>
		<stop  offset="0.7682" style="stop-color:#17838D;stop-opacity:0.9073"/>
		<stop  offset="0.8445" style="stop-color:#116068;stop-opacity:0.9378"/>
		<stop  offset="0.9167" style="stop-color:#0A383D;stop-opacity:0.9667"/>
		<stop  offset="0.9832" style="stop-color:#020C0D;stop-opacity:0.9933"/>
		<stop  offset="1" style="stop-color:#000000"/>
	</linearGradient>
	<circle fill="url(#SVGID_5_)" cx="3.7" cy="23.8" r="1.2"/>
	
		<linearGradient id="SVGID_6_" gradientUnits="userSpaceOnUse" x1="47.2101" y1="26.8113" x2="47.2461" y2="21.6513" gradientTransform="matrix(0.9999 -8.700000e-03 8.700000e-03 0.9999 0.6852 2.480000e-02)">
		<stop  offset="0" style="stop-color:#000000"/>
		<stop  offset="0" style="stop-color:#000000"/>
		<stop  offset="0" style="stop-color:#000000"/>
		<stop  offset="3.120995e-02" style="stop-color:#1A1114"/>
		<stop  offset="9.588444e-02" style="stop-color:#493038"/>
		<stop  offset="0.1662" style="stop-color:#744D5A"/>
		<stop  offset="0.2407" style="stop-color:#996676"/>
		<stop  offset="0.3203" style="stop-color:#B87A8F"/>
		<stop  offset="0.4066" style="stop-color:#D18BA2"/>
		<stop  offset="0.5023" style="stop-color:#E598B1"/>
		<stop  offset="0.6125" style="stop-color:#F3A1BC"/>
		<stop  offset="0.75" style="stop-color:#FBA6C2"/>
		<stop  offset="1" style="stop-color:#FDA8C4"/>
	</linearGradient>
	<circle fill="url(#SVGID_6_)" cx="48.1" cy="23.8" r="1.2"/>
</g>
</svg>
